<svg width="450" height="446" viewBox="0 0 450 446" fill="none" xmlns="http://www.w3.org/2000/svg">
<path fill-rule="evenodd" clip-rule="evenodd" d="M324.987 36.1915L310.394 32.8188L406.806 109.568L404.157 99.2154L324.987 36.1915ZM275.439 24.7396L290.032 28.1124L410.502 124.014L413.151 134.366L275.439 24.7396ZM255.077 20.0332L240.484 16.6605L419.495 159.164L416.847 148.812L255.077 20.0332ZM205.529 8.58136L220.121 11.9541L423.192 173.61L425.84 183.962L205.529 8.58136ZM185.166 3.87496L170.574 0.502227L432.185 208.761L429.537 198.408L185.166 3.87496ZM157.462 9.81159L161.992 5.17426L435.882 223.206L438.53 233.559L157.462 9.81159ZM151.14 16.2827L146.61 20.92L444.875 258.357L442.227 248.005L151.14 16.2827ZM135.758 32.0284L140.288 27.391L448.572 272.803L449.16 275.102L445.636 278.709L135.758 32.0284ZM129.436 38.4994L124.906 43.1368L434.784 289.818L439.314 285.181L129.436 38.4994ZM114.054 54.2452L118.584 49.6078L428.462 296.289L423.932 300.926L114.054 54.2452ZM107.732 60.7162L103.202 65.3536L413.08 312.035L417.61 307.397L107.732 60.7162ZM92.3501 76.4619L96.8804 71.8246L406.758 318.506L402.228 323.143L92.3501 76.4619ZM86.0284 82.933L81.4981 87.5703L391.376 334.251L395.906 329.614L86.0284 82.933ZM70.6461 98.6787L75.1764 94.0414L385.054 340.723L380.524 345.36L70.6461 98.6787ZM64.3244 105.15L59.7941 109.787L369.672 356.468L374.202 351.831L64.3244 105.15ZM48.9422 120.895L53.4725 116.258L363.35 362.939L358.82 367.577L48.9422 120.895ZM42.6205 127.367L38.0902 132.004L347.968 378.685L352.498 374.048L42.6205 127.367ZM27.2382 143.112L31.7685 138.475L341.646 385.156L337.116 389.793L27.2382 143.112ZM20.9165 149.583L16.3862 154.221L326.264 400.902L330.794 396.264L20.9165 149.583ZM5.5342 165.329L10.0645 160.692L319.942 407.373L315.412 412.01L5.5342 165.329ZM0.088676 172.498L2.73748 182.85L304.56 423.119L309.09 418.481L0.088676 172.498ZM9.08246 207.648L6.43367 197.296L298.238 429.59L293.708 434.227L9.08246 207.648ZM12.7787 222.094L15.4275 232.446L282.856 445.335L287.386 440.698L12.7787 222.094ZM21.7724 257.245L19.1237 246.892L265.219 442.799L250.627 439.426L21.7724 257.245ZM25.4686 271.69L28.1174 282.043L215.672 431.347L230.264 434.72L25.4686 271.69ZM34.4624 306.841L31.8136 296.489L195.309 426.641L180.717 423.268L34.4624 306.841ZM38.1586 321.287L40.8074 331.639L145.761 415.189L160.354 418.561L38.1586 321.287ZM47.1524 356.437L44.5036 346.085L125.399 410.482L110.806 407.11L47.1524 356.437ZM50.8486 370.883L56.9316 394.658L90.4436 402.403L50.8486 370.883ZM400.461 84.7695L391.994 51.6787L345.35 40.8979L400.461 84.7695Z" fill="#208E95" fill-opacity="0.26"/>
</svg>
