<svg width="702" height="555" viewBox="0 0 702 555" fill="none" xmlns="http://www.w3.org/2000/svg">
<path d="M72.5068 109.494V117H70.2041V104.616H73.6758L75.8906 111.542C75.9902 111.929 76.0928 112.318 76.1982 112.711C76.3037 113.098 76.4062 113.484 76.5059 113.871C76.5703 113.648 76.6318 113.429 76.6904 113.212C76.749 112.989 76.8076 112.767 76.8662 112.544C76.9307 112.321 76.9951 112.102 77.0596 111.885L79.3359 104.616H82.79V117H80.4873V109.494C80.4873 109.324 80.4932 108.984 80.5049 108.475C80.5225 107.959 80.5459 107.399 80.5752 106.796C80.3701 107.581 80.1885 108.249 80.0303 108.8C79.8779 109.351 79.752 109.781 79.6523 110.092L77.4199 117H75.5742L73.3418 110.092L72.4014 106.796C72.4365 107.476 72.4629 108.041 72.4805 108.492C72.498 108.938 72.5068 109.271 72.5068 109.494ZM87.4482 117.176C86.5283 117.176 85.8105 116.927 85.2949 116.429C84.7793 115.925 84.5215 115.219 84.5215 114.311C84.5215 113.326 84.8408 112.579 85.4795 112.069C86.124 111.56 87.0557 111.293 88.2744 111.27L90.3223 111.234V110.751C90.3223 110.13 90.2139 109.67 89.9971 109.371C89.7803 109.066 89.4258 108.914 88.9336 108.914C88.4766 108.914 88.1396 109.02 87.9229 109.23C87.7119 109.436 87.5801 109.778 87.5273 110.259L84.9521 110.136C85.2744 108.255 86.6367 107.314 89.0391 107.314C90.2402 107.314 91.166 107.61 91.8164 108.202C92.4668 108.794 92.792 109.635 92.792 110.725V114.188C92.792 114.721 92.8506 115.09 92.9678 115.295C93.0908 115.494 93.293 115.594 93.5742 115.594C93.7617 115.594 93.9434 115.576 94.1191 115.541V116.877C93.8145 116.953 93.5537 117.009 93.3369 117.044C93.1201 117.085 92.8535 117.105 92.5371 117.105C91.916 117.105 91.4561 116.953 91.1572 116.648C90.8643 116.344 90.6885 115.896 90.6299 115.304H90.5771C90.2314 115.925 89.7979 116.394 89.2764 116.71C88.7549 117.021 88.1455 117.176 87.4482 117.176ZM90.3223 112.597L89.0566 112.614C88.4766 112.644 88.0693 112.705 87.835 112.799C87.5947 112.904 87.4102 113.062 87.2812 113.273C87.1582 113.484 87.0967 113.766 87.0967 114.117C87.0967 114.568 87.1992 114.905 87.4043 115.128C87.6152 115.345 87.8936 115.453 88.2393 115.453C88.626 115.453 88.9805 115.348 89.3027 115.137C89.6191 114.926 89.8682 114.636 90.0498 114.267C90.2314 113.892 90.3223 113.496 90.3223 113.08V112.597ZM97.7402 112.333V117H95.2705V109.723C95.2705 109.201 95.2617 108.768 95.2441 108.422C95.2324 108.07 95.2178 107.76 95.2002 107.49H97.5557C97.5674 107.543 97.5791 107.66 97.5908 107.842C97.6025 108.023 97.6143 108.229 97.626 108.457C97.6377 108.68 97.6465 108.891 97.6523 109.09C97.6641 109.289 97.6699 109.433 97.6699 109.521H97.7051C97.9395 108.864 98.1533 108.393 98.3467 108.105C98.5342 107.83 98.7568 107.628 99.0146 107.499C99.2725 107.37 99.5947 107.306 99.9814 107.306C100.298 107.306 100.553 107.35 100.746 107.438V109.503C100.354 109.415 100.002 109.371 99.6914 109.371C99.0762 109.371 98.5957 109.62 98.25 110.118C97.9102 110.616 97.7402 111.354 97.7402 112.333ZM104.754 103.957V105.776H102.284V103.957H104.754ZM104.754 107.49V117H102.284V107.49H104.754ZM109.764 111.902V117H107.294V109.617C107.294 109.107 107.285 108.691 107.268 108.369C107.256 108.041 107.241 107.748 107.224 107.49H109.579C109.591 107.561 109.605 107.728 109.623 107.991C109.641 108.249 109.655 108.516 109.667 108.791C109.685 109.061 109.693 109.257 109.693 109.38H109.729C110.062 108.653 110.481 108.126 110.985 107.798C111.489 107.47 112.09 107.306 112.787 107.306C113.795 107.306 114.568 107.616 115.107 108.237C115.646 108.858 115.916 109.767 115.916 110.962V117H113.455V111.665C113.455 110.827 113.314 110.2 113.033 109.784C112.752 109.368 112.327 109.16 111.759 109.16C111.161 109.16 110.678 109.418 110.309 109.934C109.945 110.443 109.764 111.1 109.764 111.902ZM120.337 112.72C120.337 113.646 120.507 114.346 120.847 114.82C121.192 115.289 121.682 115.523 122.314 115.523C122.748 115.523 123.103 115.43 123.378 115.242C123.659 115.049 123.855 114.765 123.967 114.39L126.296 114.592C125.622 116.314 124.254 117.176 122.191 117.176C120.762 117.176 119.663 116.754 118.896 115.91C118.128 115.061 117.744 113.824 117.744 112.201C117.744 110.631 118.134 109.424 118.913 108.58C119.692 107.736 120.797 107.314 122.227 107.314C123.592 107.314 124.635 107.769 125.355 108.677C126.076 109.579 126.437 110.903 126.437 112.649V112.72H120.337ZM124.046 111.173C123.999 110.405 123.814 109.831 123.492 109.45C123.17 109.063 122.736 108.87 122.191 108.87C121.611 108.87 121.163 109.072 120.847 109.477C120.536 109.881 120.372 110.446 120.354 111.173H124.046ZM143.373 113.432C143.373 114.645 142.922 115.573 142.02 116.218C141.123 116.856 139.805 117.176 138.064 117.176C134.93 117.176 133.104 116.042 132.589 113.774L135.094 113.361C135.264 114.018 135.595 114.495 136.087 114.794C136.579 115.087 137.262 115.233 138.135 115.233C139.043 115.233 139.723 115.096 140.174 114.82C140.625 114.545 140.851 114.132 140.851 113.581C140.851 113.229 140.748 112.939 140.543 112.711C140.338 112.482 140.045 112.292 139.664 112.14C139.477 112.063 139.201 111.981 138.838 111.894C138.475 111.8 138.023 111.697 137.484 111.586C136.863 111.439 136.377 111.316 136.025 111.217C135.674 111.111 135.393 111.012 135.182 110.918C134.971 110.818 134.766 110.71 134.566 110.593C134.127 110.329 133.784 109.978 133.538 109.538C133.292 109.099 133.169 108.551 133.169 107.895C133.169 106.775 133.588 105.92 134.426 105.328C135.27 104.73 136.494 104.432 138.1 104.432C139.635 104.432 140.786 104.672 141.554 105.152C142.327 105.633 142.825 106.427 143.048 107.534L140.534 107.877C140.405 107.344 140.142 106.942 139.743 106.673C139.351 106.403 138.785 106.269 138.047 106.269C137.262 106.269 136.673 106.392 136.28 106.638C135.888 106.884 135.691 107.253 135.691 107.745C135.691 108.067 135.773 108.331 135.938 108.536C136.107 108.741 136.356 108.917 136.685 109.063C136.995 109.204 137.66 109.383 138.68 109.6C139.271 109.729 139.781 109.852 140.209 109.969C140.637 110.08 140.979 110.188 141.237 110.294C141.495 110.405 141.724 110.522 141.923 110.646C142.128 110.769 142.304 110.9 142.45 111.041C142.749 111.328 142.978 111.671 143.136 112.069C143.294 112.462 143.373 112.916 143.373 113.432ZM147.372 112.72C147.372 113.646 147.542 114.346 147.882 114.82C148.228 115.289 148.717 115.523 149.35 115.523C149.783 115.523 150.138 115.43 150.413 115.242C150.694 115.049 150.891 114.765 151.002 114.39L153.331 114.592C152.657 116.314 151.289 117.176 149.227 117.176C147.797 117.176 146.698 116.754 145.931 115.91C145.163 115.061 144.779 113.824 144.779 112.201C144.779 110.631 145.169 109.424 145.948 108.58C146.728 107.736 147.832 107.314 149.262 107.314C150.627 107.314 151.67 107.769 152.391 108.677C153.111 109.579 153.472 110.903 153.472 112.649V112.72H147.372ZM151.081 111.173C151.034 110.405 150.85 109.831 150.527 109.45C150.205 109.063 149.771 108.87 149.227 108.87C148.646 108.87 148.198 109.072 147.882 109.477C147.571 109.881 147.407 110.446 147.39 111.173H151.081ZM157.822 112.333V117H155.353V109.723C155.353 109.201 155.344 108.768 155.326 108.422C155.314 108.07 155.3 107.76 155.282 107.49H157.638C157.649 107.543 157.661 107.66 157.673 107.842C157.685 108.023 157.696 108.229 157.708 108.457C157.72 108.68 157.729 108.891 157.734 109.09C157.746 109.289 157.752 109.433 157.752 109.521H157.787C158.021 108.864 158.235 108.393 158.429 108.105C158.616 107.83 158.839 107.628 159.097 107.499C159.354 107.37 159.677 107.306 160.063 107.306C160.38 107.306 160.635 107.35 160.828 107.438V109.503C160.436 109.415 160.084 109.371 159.773 109.371C159.158 109.371 158.678 109.62 158.332 110.118C157.992 110.616 157.822 111.354 157.822 112.333ZM171.041 107.49L167.534 117H164.581L161.18 107.49H163.79L165.451 112.808C165.498 112.954 165.571 113.212 165.671 113.581C165.776 113.944 165.911 114.419 166.075 115.005C166.099 114.923 166.146 114.759 166.216 114.513C166.292 114.267 166.374 113.997 166.462 113.704C166.55 113.411 166.626 113.165 166.69 112.966L168.457 107.49H171.041ZM174.855 103.957V105.776H172.386V103.957H174.855ZM174.855 107.49V117H172.386V107.49H174.855ZM181.359 117.176C179.918 117.176 178.805 116.748 178.02 115.893C177.234 115.031 176.842 113.833 176.842 112.298C176.842 110.728 177.237 109.506 178.028 108.633C178.819 107.754 179.941 107.314 181.395 107.314C182.514 107.314 183.439 107.596 184.172 108.158C184.904 108.721 185.364 109.497 185.552 110.487L183.064 110.61C182.994 110.124 182.818 109.737 182.537 109.45C182.256 109.157 181.857 109.011 181.342 109.011C180.703 109.011 180.226 109.277 179.909 109.811C179.593 110.338 179.435 111.135 179.435 112.201C179.435 113.297 179.596 114.12 179.918 114.671C180.246 115.216 180.732 115.488 181.377 115.488C181.846 115.488 182.238 115.342 182.555 115.049C182.871 114.75 183.067 114.308 183.144 113.722L185.622 113.836C185.534 114.504 185.297 115.09 184.91 115.594C184.529 116.092 184.034 116.481 183.425 116.763C182.815 117.038 182.127 117.176 181.359 117.176ZM189.454 112.72C189.454 113.646 189.624 114.346 189.964 114.82C190.31 115.289 190.799 115.523 191.432 115.523C191.865 115.523 192.22 115.43 192.495 115.242C192.776 115.049 192.973 114.765 193.084 114.39L195.413 114.592C194.739 116.314 193.371 117.176 191.309 117.176C189.879 117.176 188.78 116.754 188.013 115.91C187.245 115.061 186.861 113.824 186.861 112.201C186.861 110.631 187.251 109.424 188.03 108.58C188.81 107.736 189.914 107.314 191.344 107.314C192.709 107.314 193.752 107.769 194.473 108.677C195.193 109.579 195.554 110.903 195.554 112.649V112.72H189.454ZM193.163 111.173C193.116 110.405 192.932 109.831 192.609 109.45C192.287 109.063 191.854 108.87 191.309 108.87C190.729 108.87 190.28 109.072 189.964 109.477C189.653 109.881 189.489 110.446 189.472 111.173H193.163Z" fill="white"/>
<path d="M189.303 412.996V415H179.204V402.616H188.942V404.62H181.797V407.731H188.406V409.735H181.797V412.996H189.303ZM193.732 409.902V415H191.263V407.617C191.263 407.107 191.254 406.691 191.236 406.369C191.225 406.041 191.21 405.748 191.192 405.49H193.548C193.56 405.561 193.574 405.728 193.592 405.991C193.609 406.249 193.624 406.516 193.636 406.791C193.653 407.061 193.662 407.257 193.662 407.38H193.697C194.031 406.653 194.45 406.126 194.954 405.798C195.458 405.47 196.059 405.306 196.756 405.306C197.764 405.306 198.537 405.616 199.076 406.237C199.615 406.858 199.885 407.767 199.885 408.962V415H197.424V409.665C197.424 408.827 197.283 408.2 197.002 407.784C196.721 407.368 196.296 407.16 195.728 407.16C195.13 407.16 194.646 407.418 194.277 407.934C193.914 408.443 193.732 409.1 193.732 409.902ZM206.248 418.814C205.088 418.814 204.153 418.592 203.444 418.146C202.741 417.707 202.308 417.077 202.144 416.257L204.613 415.967C204.701 416.348 204.889 416.646 205.176 416.863C205.469 417.08 205.85 417.188 206.318 417.188C207.004 417.188 207.505 416.978 207.821 416.556C208.138 416.134 208.296 415.507 208.296 414.675L208.313 413.233H208.296C208.026 413.819 207.637 414.259 207.127 414.552C206.617 414.839 205.987 414.982 205.237 414.982C204.13 414.982 203.271 414.566 202.662 413.734C202.053 412.902 201.748 411.713 201.748 410.166C201.748 408.613 202.062 407.415 202.688 406.571C203.315 405.728 204.227 405.306 205.422 405.306C206.113 405.306 206.696 405.449 207.171 405.736C207.651 406.018 208.026 406.445 208.296 407.02H208.34C208.34 406.879 208.346 406.703 208.357 406.492C208.369 406.281 208.384 406.079 208.401 405.886C208.425 405.692 208.445 405.561 208.463 405.49H210.801C210.766 406.123 210.748 406.855 210.748 407.688V414.71C210.748 416.063 210.364 417.086 209.597 417.777C208.829 418.469 207.713 418.814 206.248 418.814ZM208.313 410.113C208.313 409.135 208.138 408.373 207.786 407.828C207.44 407.277 206.945 407.002 206.301 407.002C205.645 407.002 205.149 407.266 204.815 407.793C204.487 408.32 204.323 409.111 204.323 410.166C204.323 411.197 204.484 411.974 204.807 412.495C205.135 413.011 205.627 413.269 206.283 413.269C206.939 413.269 207.44 412.996 207.786 412.451C208.138 411.9 208.313 411.121 208.313 410.113ZM215.74 401.957V403.776H213.271V401.957H215.74ZM215.74 405.49V415H213.271V405.49H215.74ZM220.75 409.902V415H218.28V407.617C218.28 407.107 218.271 406.691 218.254 406.369C218.242 406.041 218.228 405.748 218.21 405.49H220.565C220.577 405.561 220.592 405.728 220.609 405.991C220.627 406.249 220.642 406.516 220.653 406.791C220.671 407.061 220.68 407.257 220.68 407.38H220.715C221.049 406.653 221.468 406.126 221.972 405.798C222.476 405.47 223.076 405.306 223.773 405.306C224.781 405.306 225.555 405.616 226.094 406.237C226.633 406.858 226.902 407.767 226.902 408.962V415H224.441V409.665C224.441 408.827 224.301 408.2 224.02 407.784C223.738 407.368 223.313 407.16 222.745 407.16C222.147 407.16 221.664 407.418 221.295 407.934C220.932 408.443 220.75 409.1 220.75 409.902ZM231.323 410.72C231.323 411.646 231.493 412.346 231.833 412.82C232.179 413.289 232.668 413.523 233.301 413.523C233.734 413.523 234.089 413.43 234.364 413.242C234.646 413.049 234.842 412.765 234.953 412.39L237.282 412.592C236.608 414.314 235.24 415.176 233.178 415.176C231.748 415.176 230.649 414.754 229.882 413.91C229.114 413.061 228.73 411.824 228.73 410.201C228.73 408.631 229.12 407.424 229.899 406.58C230.679 405.736 231.783 405.314 233.213 405.314C234.578 405.314 235.621 405.769 236.342 406.677C237.062 407.579 237.423 408.903 237.423 410.649V410.72H231.323ZM235.032 409.173C234.985 408.405 234.801 407.831 234.479 407.45C234.156 407.063 233.723 406.87 233.178 406.87C232.598 406.87 232.149 407.072 231.833 407.477C231.522 407.881 231.358 408.446 231.341 409.173H235.032ZM241.343 410.72C241.343 411.646 241.513 412.346 241.853 412.82C242.198 413.289 242.688 413.523 243.32 413.523C243.754 413.523 244.108 413.43 244.384 413.242C244.665 413.049 244.861 412.765 244.973 412.39L247.302 412.592C246.628 414.314 245.26 415.176 243.197 415.176C241.768 415.176 240.669 414.754 239.901 413.91C239.134 413.061 238.75 411.824 238.75 410.201C238.75 408.631 239.14 407.424 239.919 406.58C240.698 405.736 241.803 405.314 243.232 405.314C244.598 405.314 245.641 405.769 246.361 406.677C247.082 407.579 247.442 408.903 247.442 410.649V410.72H241.343ZM245.052 409.173C245.005 408.405 244.82 407.831 244.498 407.45C244.176 407.063 243.742 406.87 243.197 406.87C242.617 406.87 242.169 407.072 241.853 407.477C241.542 407.881 241.378 408.446 241.36 409.173H245.052ZM251.793 410.333V415H249.323V407.723C249.323 407.201 249.314 406.768 249.297 406.422C249.285 406.07 249.271 405.76 249.253 405.49H251.608C251.62 405.543 251.632 405.66 251.644 405.842C251.655 406.023 251.667 406.229 251.679 406.457C251.69 406.68 251.699 406.891 251.705 407.09C251.717 407.289 251.723 407.433 251.723 407.521H251.758C251.992 406.864 252.206 406.393 252.399 406.105C252.587 405.83 252.81 405.628 253.067 405.499C253.325 405.37 253.647 405.306 254.034 405.306C254.351 405.306 254.605 405.35 254.799 405.438V407.503C254.406 407.415 254.055 407.371 253.744 407.371C253.129 407.371 252.648 407.62 252.303 408.118C251.963 408.616 251.793 409.354 251.793 410.333ZM258.807 401.957V403.776H256.337V401.957H258.807ZM258.807 405.49V415H256.337V405.49H258.807ZM263.816 409.902V415H261.347V407.617C261.347 407.107 261.338 406.691 261.32 406.369C261.309 406.041 261.294 405.748 261.276 405.49H263.632C263.644 405.561 263.658 405.728 263.676 405.991C263.693 406.249 263.708 406.516 263.72 406.791C263.737 407.061 263.746 407.257 263.746 407.38H263.781C264.115 406.653 264.534 406.126 265.038 405.798C265.542 405.47 266.143 405.306 266.84 405.306C267.848 405.306 268.621 405.616 269.16 406.237C269.699 406.858 269.969 407.767 269.969 408.962V415H267.508V409.665C267.508 408.827 267.367 408.2 267.086 407.784C266.805 407.368 266.38 407.16 265.812 407.16C265.214 407.16 264.73 407.418 264.361 407.934C263.998 408.443 263.816 409.1 263.816 409.902ZM276.332 418.814C275.172 418.814 274.237 418.592 273.528 418.146C272.825 417.707 272.392 417.077 272.228 416.257L274.697 415.967C274.785 416.348 274.973 416.646 275.26 416.863C275.553 417.08 275.934 417.188 276.402 417.188C277.088 417.188 277.589 416.978 277.905 416.556C278.222 416.134 278.38 415.507 278.38 414.675L278.397 413.233H278.38C278.11 413.819 277.721 414.259 277.211 414.552C276.701 414.839 276.071 414.982 275.321 414.982C274.214 414.982 273.355 414.566 272.746 413.734C272.137 412.902 271.832 411.713 271.832 410.166C271.832 408.613 272.146 407.415 272.772 406.571C273.399 405.728 274.311 405.306 275.506 405.306C276.197 405.306 276.78 405.449 277.255 405.736C277.735 406.018 278.11 406.445 278.38 407.02H278.424C278.424 406.879 278.43 406.703 278.441 406.492C278.453 406.281 278.468 406.079 278.485 405.886C278.509 405.692 278.529 405.561 278.547 405.49H280.885C280.85 406.123 280.832 406.855 280.832 407.688V414.71C280.832 416.063 280.448 417.086 279.681 417.777C278.913 418.469 277.797 418.814 276.332 418.814ZM278.397 410.113C278.397 409.135 278.222 408.373 277.87 407.828C277.524 407.277 277.029 407.002 276.385 407.002C275.729 407.002 275.233 407.266 274.899 407.793C274.571 408.32 274.407 409.111 274.407 410.166C274.407 411.197 274.568 411.974 274.891 412.495C275.219 413.011 275.711 413.269 276.367 413.269C277.023 413.269 277.524 412.996 277.87 412.451C278.222 411.9 278.397 411.121 278.397 410.113ZM298.498 406.536C298.498 407.339 298.313 408.051 297.944 408.672C297.581 409.287 297.062 409.771 296.389 410.122C295.715 410.468 294.912 410.641 293.98 410.641H290.904V415H288.312V402.616H293.875C295.357 402.616 296.497 402.959 297.294 403.645C298.097 404.324 298.498 405.288 298.498 406.536ZM295.888 406.58C295.888 405.279 295.12 404.629 293.585 404.629H290.904V408.646H293.655C294.37 408.646 294.921 408.47 295.308 408.118C295.694 407.761 295.888 407.248 295.888 406.58ZM302.84 410.333V415H300.37V407.723C300.37 407.201 300.361 406.768 300.344 406.422C300.332 406.07 300.317 405.76 300.3 405.49H302.655C302.667 405.543 302.679 405.66 302.69 405.842C302.702 406.023 302.714 406.229 302.726 406.457C302.737 406.68 302.746 406.891 302.752 407.09C302.764 407.289 302.77 407.433 302.77 407.521H302.805C303.039 406.864 303.253 406.393 303.446 406.105C303.634 405.83 303.856 405.628 304.114 405.499C304.372 405.37 304.694 405.306 305.081 405.306C305.397 405.306 305.652 405.35 305.846 405.438V407.503C305.453 407.415 305.102 407.371 304.791 407.371C304.176 407.371 303.695 407.62 303.35 408.118C303.01 408.616 302.84 409.354 302.84 410.333ZM316.419 410.236C316.419 411.777 315.991 412.987 315.136 413.866C314.28 414.739 313.097 415.176 311.585 415.176C310.103 415.176 308.939 414.736 308.096 413.857C307.252 412.979 306.83 411.771 306.83 410.236C306.83 408.707 307.252 407.506 308.096 406.633C308.939 405.754 310.12 405.314 311.638 405.314C313.19 405.314 314.374 405.739 315.188 406.589C316.009 407.433 316.419 408.648 316.419 410.236ZM313.835 410.236C313.835 409.105 313.65 408.285 313.281 407.775C312.912 407.266 312.376 407.011 311.673 407.011C310.923 407.011 310.36 407.28 309.985 407.819C309.61 408.353 309.423 409.158 309.423 410.236C309.423 411.297 309.604 412.105 309.968 412.662C310.337 413.213 310.867 413.488 311.559 413.488C312.32 413.488 312.889 413.219 313.264 412.68C313.645 412.135 313.835 411.32 313.835 410.236ZM322.352 415.176C320.91 415.176 319.797 414.748 319.012 413.893C318.227 413.031 317.834 411.833 317.834 410.298C317.834 408.728 318.229 407.506 319.021 406.633C319.812 405.754 320.934 405.314 322.387 405.314C323.506 405.314 324.432 405.596 325.164 406.158C325.896 406.721 326.356 407.497 326.544 408.487L324.057 408.61C323.986 408.124 323.811 407.737 323.529 407.45C323.248 407.157 322.85 407.011 322.334 407.011C321.695 407.011 321.218 407.277 320.901 407.811C320.585 408.338 320.427 409.135 320.427 410.201C320.427 411.297 320.588 412.12 320.91 412.671C321.238 413.216 321.725 413.488 322.369 413.488C322.838 413.488 323.23 413.342 323.547 413.049C323.863 412.75 324.06 412.308 324.136 411.722L326.614 411.836C326.526 412.504 326.289 413.09 325.902 413.594C325.521 414.092 325.026 414.481 324.417 414.763C323.808 415.038 323.119 415.176 322.352 415.176ZM334.454 413.11C334.126 413.831 333.707 414.355 333.197 414.684C332.693 415.012 332.093 415.176 331.396 415.176C330.388 415.176 329.614 414.868 329.075 414.253C328.536 413.632 328.267 412.724 328.267 411.528V405.49H330.736V410.825C330.736 411.657 330.877 412.284 331.158 412.706C331.439 413.122 331.861 413.33 332.424 413.33C333.021 413.33 333.502 413.075 333.865 412.565C334.234 412.05 334.419 411.391 334.419 410.588V405.49H336.889V412.873C336.889 413.277 336.895 413.658 336.906 414.016C336.918 414.367 336.936 414.695 336.959 415H334.604C334.568 414.578 334.542 414.209 334.524 413.893C334.507 413.576 334.498 413.315 334.498 413.11H334.454ZM341.881 410.333V415H339.411V407.723C339.411 407.201 339.402 406.768 339.385 406.422C339.373 406.07 339.358 405.76 339.341 405.49H341.696C341.708 405.543 341.72 405.66 341.731 405.842C341.743 406.023 341.755 406.229 341.767 406.457C341.778 406.68 341.787 406.891 341.793 407.09C341.805 407.289 341.811 407.433 341.811 407.521H341.846C342.08 406.864 342.294 406.393 342.487 406.105C342.675 405.83 342.897 405.628 343.155 405.499C343.413 405.37 343.735 405.306 344.122 405.306C344.438 405.306 344.693 405.35 344.887 405.438V407.503C344.494 407.415 344.143 407.371 343.832 407.371C343.217 407.371 342.736 407.62 342.391 408.118C342.051 408.616 341.881 409.354 341.881 410.333ZM348.464 410.72C348.464 411.646 348.634 412.346 348.974 412.82C349.319 413.289 349.809 413.523 350.441 413.523C350.875 413.523 351.229 413.43 351.505 413.242C351.786 413.049 351.982 412.765 352.094 412.39L354.423 412.592C353.749 414.314 352.381 415.176 350.318 415.176C348.889 415.176 347.79 414.754 347.022 413.91C346.255 413.061 345.871 411.824 345.871 410.201C345.871 408.631 346.261 407.424 347.04 406.58C347.819 405.736 348.924 405.314 350.354 405.314C351.719 405.314 352.762 405.769 353.482 406.677C354.203 407.579 354.563 408.903 354.563 410.649V410.72H348.464ZM352.173 409.173C352.126 408.405 351.941 407.831 351.619 407.45C351.297 407.063 350.863 406.87 350.318 406.87C349.738 406.87 349.29 407.072 348.974 407.477C348.663 407.881 348.499 408.446 348.481 409.173H352.173ZM358.914 409.902V415H356.444V407.617C356.444 407.107 356.436 406.691 356.418 406.369C356.406 406.041 356.392 405.748 356.374 405.49H358.729C358.741 405.561 358.756 405.728 358.773 405.991C358.791 406.249 358.806 406.516 358.817 406.791C358.835 407.061 358.844 407.257 358.844 407.38H358.879C359.184 406.653 359.562 406.126 360.013 405.798C360.47 405.47 361.015 405.306 361.647 405.306C362.374 405.306 362.957 405.479 363.396 405.824C363.842 406.17 364.141 406.688 364.293 407.38H364.346C364.668 406.642 365.055 406.111 365.506 405.789C365.957 405.467 366.531 405.306 367.229 405.306C368.154 405.306 368.86 405.622 369.347 406.255C369.833 406.882 370.076 407.784 370.076 408.962V415H367.624V409.665C367.624 408.827 367.504 408.2 367.264 407.784C367.023 407.368 366.663 407.16 366.183 407.16C365.702 407.16 365.301 407.395 364.979 407.863C364.656 408.326 364.495 408.968 364.495 409.788V415H362.043V409.665C362.043 408.827 361.923 408.2 361.683 407.784C361.442 407.368 361.082 407.16 360.602 407.16C360.104 407.16 359.696 407.415 359.38 407.925C359.069 408.435 358.914 409.094 358.914 409.902ZM374.497 410.72C374.497 411.646 374.667 412.346 375.007 412.82C375.353 413.289 375.842 413.523 376.475 413.523C376.908 413.523 377.263 413.43 377.538 413.242C377.819 413.049 378.016 412.765 378.127 412.39L380.456 412.592C379.782 414.314 378.414 415.176 376.352 415.176C374.922 415.176 373.823 414.754 373.056 413.91C372.288 413.061 371.904 411.824 371.904 410.201C371.904 408.631 372.294 407.424 373.073 406.58C373.853 405.736 374.957 405.314 376.387 405.314C377.752 405.314 378.795 405.769 379.516 406.677C380.236 407.579 380.597 408.903 380.597 410.649V410.72H374.497ZM378.206 409.173C378.159 408.405 377.975 407.831 377.652 407.45C377.33 407.063 376.896 406.87 376.352 406.87C375.771 406.87 375.323 407.072 375.007 407.477C374.696 407.881 374.532 408.446 374.515 409.173H378.206ZM384.947 409.902V415H382.478V407.617C382.478 407.107 382.469 406.691 382.451 406.369C382.439 406.041 382.425 405.748 382.407 405.49H384.763C384.774 405.561 384.789 405.728 384.807 405.991C384.824 406.249 384.839 406.516 384.851 406.791C384.868 407.061 384.877 407.257 384.877 407.38H384.912C385.246 406.653 385.665 406.126 386.169 405.798C386.673 405.47 387.273 405.306 387.971 405.306C388.979 405.306 389.752 405.616 390.291 406.237C390.83 406.858 391.1 407.767 391.1 408.962V415H388.639V409.665C388.639 408.827 388.498 408.2 388.217 407.784C387.936 407.368 387.511 407.16 386.942 407.16C386.345 407.16 385.861 407.418 385.492 407.934C385.129 408.443 384.947 409.1 384.947 409.902ZM397.999 414.859C397.401 415.059 396.707 415.158 395.916 415.158C395.189 415.158 394.63 414.962 394.237 414.569C393.845 414.171 393.648 413.57 393.648 412.768V407.16H392.444V405.49H393.771L394.545 403.258H396.092V405.49H397.894V407.16H396.092V412.1C396.092 412.562 396.18 412.905 396.355 413.128C396.531 413.345 396.804 413.453 397.173 413.453C397.349 413.453 397.624 413.412 397.999 413.33V414.859Z" fill="white"/>
<path d="M525.987 409.137C527.558 409.137 528.645 408.352 529.248 406.781L531.507 407.634C531.021 408.829 530.306 409.72 529.362 410.306C528.425 410.886 527.3 411.176 525.987 411.176C524.663 411.176 523.535 410.924 522.604 410.42C521.672 409.91 520.96 409.175 520.468 408.214C519.981 407.253 519.738 406.099 519.738 404.751C519.738 403.392 519.973 402.243 520.441 401.306C520.91 400.368 521.602 399.656 522.516 399.17C523.43 398.678 524.549 398.432 525.873 398.432C527.326 398.432 528.51 398.725 529.424 399.311C530.338 399.891 530.979 400.746 531.349 401.877L529.063 402.501C528.87 401.88 528.489 401.388 527.921 401.024C527.358 400.655 526.693 400.471 525.926 400.471C524.754 400.471 523.863 400.834 523.254 401.561C522.65 402.287 522.349 403.351 522.349 404.751C522.349 405.7 522.486 406.5 522.762 407.15C523.043 407.801 523.453 408.296 523.992 408.636C524.537 408.97 525.202 409.137 525.987 409.137ZM535.462 411.176C534.542 411.176 533.824 410.927 533.309 410.429C532.793 409.925 532.535 409.219 532.535 408.311C532.535 407.326 532.854 406.579 533.493 406.069C534.138 405.56 535.069 405.293 536.288 405.27L538.336 405.234V404.751C538.336 404.13 538.228 403.67 538.011 403.371C537.794 403.066 537.439 402.914 536.947 402.914C536.49 402.914 536.153 403.02 535.937 403.23C535.726 403.436 535.594 403.778 535.541 404.259L532.966 404.136C533.288 402.255 534.65 401.314 537.053 401.314C538.254 401.314 539.18 401.61 539.83 402.202C540.48 402.794 540.806 403.635 540.806 404.725V408.188C540.806 408.721 540.864 409.09 540.981 409.295C541.104 409.494 541.307 409.594 541.588 409.594C541.775 409.594 541.957 409.576 542.133 409.541V410.877C541.828 410.953 541.567 411.009 541.351 411.044C541.134 411.085 540.867 411.105 540.551 411.105C539.93 411.105 539.47 410.953 539.171 410.648C538.878 410.344 538.702 409.896 538.644 409.304H538.591C538.245 409.925 537.812 410.394 537.29 410.71C536.769 411.021 536.159 411.176 535.462 411.176ZM538.336 406.597L537.07 406.614C536.49 406.644 536.083 406.705 535.849 406.799C535.608 406.904 535.424 407.062 535.295 407.273C535.172 407.484 535.11 407.766 535.11 408.117C535.11 408.568 535.213 408.905 535.418 409.128C535.629 409.345 535.907 409.453 536.253 409.453C536.64 409.453 536.994 409.348 537.316 409.137C537.633 408.926 537.882 408.636 538.063 408.267C538.245 407.892 538.336 407.496 538.336 407.08V406.597ZM547.802 410.859C547.204 411.059 546.51 411.158 545.719 411.158C544.992 411.158 544.433 410.962 544.04 410.569C543.647 410.171 543.451 409.57 543.451 408.768V403.16H542.247V401.49H543.574L544.348 399.258H545.895V401.49H547.696V403.16H545.895V408.1C545.895 408.562 545.982 408.905 546.158 409.128C546.334 409.345 546.606 409.453 546.976 409.453C547.151 409.453 547.427 409.412 547.802 409.33V410.859ZM551.317 406.72C551.317 407.646 551.487 408.346 551.827 408.82C552.173 409.289 552.662 409.523 553.295 409.523C553.729 409.523 554.083 409.43 554.358 409.242C554.64 409.049 554.836 408.765 554.947 408.39L557.276 408.592C556.603 410.314 555.234 411.176 553.172 411.176C551.742 411.176 550.644 410.754 549.876 409.91C549.108 409.061 548.725 407.824 548.725 406.201C548.725 404.631 549.114 403.424 549.894 402.58C550.673 401.736 551.777 401.314 553.207 401.314C554.572 401.314 555.615 401.769 556.336 402.677C557.057 403.579 557.417 404.903 557.417 406.649V406.72H551.317ZM555.026 405.173C554.979 404.405 554.795 403.831 554.473 403.45C554.15 403.063 553.717 402.87 553.172 402.87C552.592 402.87 552.144 403.072 551.827 403.477C551.517 403.881 551.353 404.446 551.335 405.173H555.026ZM561.768 406.333V411H559.298V403.723C559.298 403.201 559.289 402.768 559.271 402.422C559.26 402.07 559.245 401.76 559.228 401.49H561.583C561.595 401.543 561.606 401.66 561.618 401.842C561.63 402.023 561.642 402.229 561.653 402.457C561.665 402.68 561.674 402.891 561.68 403.09C561.691 403.289 561.697 403.433 561.697 403.521H561.732C561.967 402.864 562.181 402.393 562.374 402.105C562.562 401.83 562.784 401.628 563.042 401.499C563.3 401.37 563.622 401.306 564.009 401.306C564.325 401.306 564.58 401.35 564.773 401.438V403.503C564.381 403.415 564.029 403.371 563.719 403.371C563.104 403.371 562.623 403.62 562.277 404.118C561.938 404.616 561.768 405.354 561.768 406.333ZM568.781 397.957V399.776H566.312V397.957H568.781ZM568.781 401.49V411H566.312V401.49H568.781ZM573.791 405.902V411H571.321V403.617C571.321 403.107 571.312 402.691 571.295 402.369C571.283 402.041 571.269 401.748 571.251 401.49H573.606C573.618 401.561 573.633 401.728 573.65 401.991C573.668 402.249 573.683 402.516 573.694 402.791C573.712 403.061 573.721 403.257 573.721 403.38H573.756C574.09 402.653 574.509 402.126 575.013 401.798C575.517 401.47 576.117 401.306 576.814 401.306C577.822 401.306 578.596 401.616 579.135 402.237C579.674 402.858 579.943 403.767 579.943 404.962V411H577.482V405.665C577.482 404.827 577.342 404.2 577.061 403.784C576.779 403.368 576.354 403.16 575.786 403.16C575.188 403.16 574.705 403.418 574.336 403.934C573.973 404.443 573.791 405.1 573.791 405.902ZM586.307 414.814C585.146 414.814 584.212 414.592 583.503 414.146C582.8 413.707 582.366 413.077 582.202 412.257L584.672 411.967C584.76 412.348 584.947 412.646 585.234 412.863C585.527 413.08 585.908 413.188 586.377 413.188C587.062 413.188 587.563 412.978 587.88 412.556C588.196 412.134 588.354 411.507 588.354 410.675L588.372 409.233H588.354C588.085 409.819 587.695 410.259 587.186 410.552C586.676 410.839 586.046 410.982 585.296 410.982C584.188 410.982 583.33 410.566 582.721 409.734C582.111 408.902 581.807 407.713 581.807 406.166C581.807 404.613 582.12 403.415 582.747 402.571C583.374 401.728 584.285 401.306 585.48 401.306C586.172 401.306 586.755 401.449 587.229 401.736C587.71 402.018 588.085 402.445 588.354 403.02H588.398C588.398 402.879 588.404 402.703 588.416 402.492C588.428 402.281 588.442 402.079 588.46 401.886C588.483 401.692 588.504 401.561 588.521 401.49H590.859C590.824 402.123 590.807 402.855 590.807 403.688V410.71C590.807 412.063 590.423 413.086 589.655 413.777C588.888 414.469 587.771 414.814 586.307 414.814ZM588.372 406.113C588.372 405.135 588.196 404.373 587.845 403.828C587.499 403.277 587.004 403.002 586.359 403.002C585.703 403.002 585.208 403.266 584.874 403.793C584.546 404.32 584.382 405.111 584.382 406.166C584.382 407.197 584.543 407.974 584.865 408.495C585.193 409.011 585.686 409.269 586.342 409.269C586.998 409.269 587.499 408.996 587.845 408.451C588.196 407.9 588.372 407.121 588.372 406.113ZM608.385 407.432C608.385 408.645 607.934 409.573 607.031 410.218C606.135 410.856 604.816 411.176 603.076 411.176C599.941 411.176 598.116 410.042 597.601 407.774L600.105 407.361C600.275 408.018 600.606 408.495 601.099 408.794C601.591 409.087 602.273 409.233 603.146 409.233C604.055 409.233 604.734 409.096 605.186 408.82C605.637 408.545 605.862 408.132 605.862 407.581C605.862 407.229 605.76 406.939 605.555 406.711C605.35 406.482 605.057 406.292 604.676 406.14C604.488 406.063 604.213 405.981 603.85 405.894C603.486 405.8 603.035 405.697 602.496 405.586C601.875 405.439 601.389 405.316 601.037 405.217C600.686 405.111 600.404 405.012 600.193 404.918C599.982 404.818 599.777 404.71 599.578 404.593C599.139 404.329 598.796 403.978 598.55 403.538C598.304 403.099 598.181 402.551 598.181 401.895C598.181 400.775 598.6 399.92 599.438 399.328C600.281 398.73 601.506 398.432 603.111 398.432C604.646 398.432 605.798 398.672 606.565 399.152C607.339 399.633 607.837 400.427 608.06 401.534L605.546 401.877C605.417 401.344 605.153 400.942 604.755 400.673C604.362 400.403 603.797 400.269 603.059 400.269C602.273 400.269 601.685 400.392 601.292 400.638C600.899 400.884 600.703 401.253 600.703 401.745C600.703 402.067 600.785 402.331 600.949 402.536C601.119 402.741 601.368 402.917 601.696 403.063C602.007 403.204 602.672 403.383 603.691 403.6C604.283 403.729 604.793 403.852 605.221 403.969C605.648 404.08 605.991 404.188 606.249 404.294C606.507 404.405 606.735 404.522 606.935 404.646C607.14 404.769 607.315 404.9 607.462 405.041C607.761 405.328 607.989 405.671 608.147 406.069C608.306 406.462 608.385 406.916 608.385 407.432ZM612.384 406.72C612.384 407.646 612.554 408.346 612.894 408.82C613.239 409.289 613.729 409.523 614.361 409.523C614.795 409.523 615.149 409.43 615.425 409.242C615.706 409.049 615.902 408.765 616.014 408.39L618.343 408.592C617.669 410.314 616.301 411.176 614.238 411.176C612.809 411.176 611.71 410.754 610.942 409.91C610.175 409.061 609.791 407.824 609.791 406.201C609.791 404.631 610.181 403.424 610.96 402.58C611.739 401.736 612.844 401.314 614.273 401.314C615.639 401.314 616.682 401.769 617.402 402.677C618.123 403.579 618.483 404.903 618.483 406.649V406.72H612.384ZM616.093 405.173C616.046 404.405 615.861 403.831 615.539 403.45C615.217 403.063 614.783 402.87 614.238 402.87C613.658 402.87 613.21 403.072 612.894 403.477C612.583 403.881 612.419 404.446 612.401 405.173H616.093ZM622.834 406.333V411H620.364V403.723C620.364 403.201 620.355 402.768 620.338 402.422C620.326 402.07 620.312 401.76 620.294 401.49H622.649C622.661 401.543 622.673 401.66 622.685 401.842C622.696 402.023 622.708 402.229 622.72 402.457C622.731 402.68 622.74 402.891 622.746 403.09C622.758 403.289 622.764 403.433 622.764 403.521H622.799C623.033 402.864 623.247 402.393 623.44 402.105C623.628 401.83 623.851 401.628 624.108 401.499C624.366 401.37 624.688 401.306 625.075 401.306C625.392 401.306 625.646 401.35 625.84 401.438V403.503C625.447 403.415 625.096 403.371 624.785 403.371C624.17 403.371 623.689 403.62 623.344 404.118C623.004 404.616 622.834 405.354 622.834 406.333ZM636.053 401.49L632.546 411H629.593L626.191 401.49H628.802L630.463 406.808C630.51 406.954 630.583 407.212 630.683 407.581C630.788 407.944 630.923 408.419 631.087 409.005C631.11 408.923 631.157 408.759 631.228 408.513C631.304 408.267 631.386 407.997 631.474 407.704C631.562 407.411 631.638 407.165 631.702 406.966L633.469 401.49H636.053ZM639.867 397.957V399.776H637.397V397.957H639.867ZM639.867 401.49V411H637.397V401.49H639.867ZM646.371 411.176C644.93 411.176 643.816 410.748 643.031 409.893C642.246 409.031 641.854 407.833 641.854 406.298C641.854 404.728 642.249 403.506 643.04 402.633C643.831 401.754 644.953 401.314 646.406 401.314C647.525 401.314 648.451 401.596 649.184 402.158C649.916 402.721 650.376 403.497 650.563 404.487L648.076 404.61C648.006 404.124 647.83 403.737 647.549 403.45C647.268 403.157 646.869 403.011 646.354 403.011C645.715 403.011 645.237 403.277 644.921 403.811C644.604 404.338 644.446 405.135 644.446 406.201C644.446 407.297 644.607 408.12 644.93 408.671C645.258 409.216 645.744 409.488 646.389 409.488C646.857 409.488 647.25 409.342 647.566 409.049C647.883 408.75 648.079 408.308 648.155 407.722L650.634 407.836C650.546 408.504 650.309 409.09 649.922 409.594C649.541 410.092 649.046 410.481 648.437 410.763C647.827 411.038 647.139 411.176 646.371 411.176ZM654.466 406.72C654.466 407.646 654.636 408.346 654.976 408.82C655.321 409.289 655.811 409.523 656.443 409.523C656.877 409.523 657.231 409.43 657.507 409.242C657.788 409.049 657.984 408.765 658.096 408.39L660.425 408.592C659.751 410.314 658.383 411.176 656.32 411.176C654.891 411.176 653.792 410.754 653.024 409.91C652.257 409.061 651.873 407.824 651.873 406.201C651.873 404.631 652.263 403.424 653.042 402.58C653.821 401.736 654.926 401.314 656.355 401.314C657.721 401.314 658.764 401.769 659.484 402.677C660.205 403.579 660.565 404.903 660.565 406.649V406.72H654.466ZM658.175 405.173C658.128 404.405 657.943 403.831 657.621 403.45C657.299 403.063 656.865 402.87 656.32 402.87C655.74 402.87 655.292 403.072 654.976 403.477C654.665 403.881 654.501 404.446 654.483 405.173H658.175Z" fill="white"/>
<path d="M211.454 445.176C210.534 445.176 209.816 444.927 209.301 444.429C208.785 443.925 208.527 443.219 208.527 442.311C208.527 441.326 208.847 440.579 209.485 440.069C210.13 439.56 211.062 439.293 212.28 439.27L214.328 439.234V438.751C214.328 438.13 214.22 437.67 214.003 437.371C213.786 437.066 213.432 436.914 212.939 436.914C212.482 436.914 212.146 437.02 211.929 437.23C211.718 437.436 211.586 437.778 211.533 438.259L208.958 438.136C209.28 436.255 210.643 435.314 213.045 435.314C214.246 435.314 215.172 435.61 215.822 436.202C216.473 436.794 216.798 437.635 216.798 438.725V442.188C216.798 442.721 216.856 443.09 216.974 443.295C217.097 443.494 217.299 443.594 217.58 443.594C217.768 443.594 217.949 443.576 218.125 443.541V444.877C217.82 444.953 217.56 445.009 217.343 445.044C217.126 445.085 216.859 445.105 216.543 445.105C215.922 445.105 215.462 444.953 215.163 444.648C214.87 444.344 214.694 443.896 214.636 443.304H214.583C214.237 443.925 213.804 444.394 213.282 444.71C212.761 445.021 212.151 445.176 211.454 445.176ZM214.328 440.597L213.062 440.614C212.482 440.644 212.075 440.705 211.841 440.799C211.601 440.904 211.416 441.062 211.287 441.273C211.164 441.484 211.103 441.766 211.103 442.117C211.103 442.568 211.205 442.905 211.41 443.128C211.621 443.345 211.899 443.453 212.245 443.453C212.632 443.453 212.986 443.348 213.309 443.137C213.625 442.926 213.874 442.636 214.056 442.267C214.237 441.892 214.328 441.496 214.328 441.08V440.597ZM221.746 439.902V445H219.276V437.617C219.276 437.107 219.268 436.691 219.25 436.369C219.238 436.041 219.224 435.748 219.206 435.49H221.562C221.573 435.561 221.588 435.728 221.605 435.991C221.623 436.249 221.638 436.516 221.649 436.791C221.667 437.061 221.676 437.257 221.676 437.38H221.711C222.045 436.653 222.464 436.126 222.968 435.798C223.472 435.47 224.072 435.306 224.77 435.306C225.777 435.306 226.551 435.616 227.09 436.237C227.629 436.858 227.898 437.767 227.898 438.962V445H225.438V439.665C225.438 438.827 225.297 438.2 225.016 437.784C224.734 437.368 224.31 437.16 223.741 437.16C223.144 437.16 222.66 437.418 222.291 437.934C221.928 438.443 221.746 439.1 221.746 439.902ZM236.441 445C236.43 444.941 236.412 444.818 236.389 444.631C236.365 444.443 236.345 444.238 236.327 444.016C236.315 443.793 236.31 443.605 236.31 443.453H236.274C236.005 444.027 235.618 444.458 235.114 444.745C234.61 445.032 233.983 445.176 233.233 445.176C232.126 445.176 231.271 444.745 230.667 443.884C230.063 443.017 229.762 441.807 229.762 440.254C229.762 438.678 230.078 437.462 230.711 436.606C231.35 435.745 232.252 435.314 233.418 435.314C234.092 435.314 234.672 435.455 235.158 435.736C235.65 436.018 236.028 436.437 236.292 436.993H236.31L236.292 435.429V431.957H238.762V442.926C238.762 443.219 238.768 443.538 238.779 443.884C238.791 444.229 238.809 444.602 238.832 445H236.441ZM232.337 440.254C232.337 441.332 232.498 442.141 232.82 442.68C233.148 443.219 233.635 443.488 234.279 443.488C234.93 443.488 235.434 443.204 235.791 442.636C236.148 442.062 236.327 441.247 236.327 440.192C236.327 439.167 236.154 438.379 235.809 437.828C235.469 437.271 234.965 436.993 234.297 436.993C233.635 436.993 233.143 437.263 232.82 437.802C232.498 438.335 232.337 439.152 232.337 440.254ZM250.258 445.176C248.816 445.176 247.703 444.748 246.918 443.893C246.133 443.031 245.74 441.833 245.74 440.298C245.74 438.728 246.136 437.506 246.927 436.633C247.718 435.754 248.84 435.314 250.293 435.314C251.412 435.314 252.338 435.596 253.07 436.158C253.803 436.721 254.263 437.497 254.45 438.487L251.963 438.61C251.893 438.124 251.717 437.737 251.436 437.45C251.154 437.157 250.756 437.011 250.24 437.011C249.602 437.011 249.124 437.277 248.808 437.811C248.491 438.338 248.333 439.135 248.333 440.201C248.333 441.297 248.494 442.12 248.816 442.671C249.145 443.216 249.631 443.488 250.275 443.488C250.744 443.488 251.137 443.342 251.453 443.049C251.77 442.75 251.966 442.308 252.042 441.722L254.521 441.836C254.433 442.504 254.195 443.09 253.809 443.594C253.428 444.092 252.933 444.481 252.323 444.763C251.714 445.038 251.025 445.176 250.258 445.176ZM265.349 440.236C265.349 441.777 264.921 442.987 264.065 443.866C263.21 444.739 262.026 445.176 260.515 445.176C259.032 445.176 257.869 444.736 257.025 443.857C256.182 442.979 255.76 441.771 255.76 440.236C255.76 438.707 256.182 437.506 257.025 436.633C257.869 435.754 259.05 435.314 260.567 435.314C262.12 435.314 263.304 435.739 264.118 436.589C264.938 437.433 265.349 438.648 265.349 440.236ZM262.765 440.236C262.765 439.105 262.58 438.285 262.211 437.775C261.842 437.266 261.306 437.011 260.603 437.011C259.853 437.011 259.29 437.28 258.915 437.819C258.54 438.353 258.353 439.158 258.353 440.236C258.353 441.297 258.534 442.105 258.897 442.662C259.267 443.213 259.797 443.488 260.488 443.488C261.25 443.488 261.818 443.219 262.193 442.68C262.574 442.135 262.765 441.32 262.765 440.236ZM269.787 439.902V445H267.317V437.617C267.317 437.107 267.309 436.691 267.291 436.369C267.279 436.041 267.265 435.748 267.247 435.49H269.603C269.614 435.561 269.629 435.728 269.646 435.991C269.664 436.249 269.679 436.516 269.69 436.791C269.708 437.061 269.717 437.257 269.717 437.38H269.752C270.086 436.653 270.505 436.126 271.009 435.798C271.513 435.47 272.113 435.306 272.811 435.306C273.818 435.306 274.592 435.616 275.131 436.237C275.67 436.858 275.939 437.767 275.939 438.962V445H273.479V439.665C273.479 438.827 273.338 438.2 273.057 437.784C272.775 437.368 272.351 437.16 271.782 437.16C271.185 437.16 270.701 437.418 270.332 437.934C269.969 438.443 269.787 439.1 269.787 439.902ZM286.337 442.223C286.337 443.143 285.959 443.866 285.203 444.394C284.453 444.915 283.413 445.176 282.083 445.176C280.776 445.176 279.774 444.971 279.077 444.561C278.386 444.145 277.926 443.5 277.697 442.627L279.868 442.302C279.991 442.753 280.202 443.072 280.501 443.26C280.806 443.447 281.333 443.541 282.083 443.541C282.774 443.541 283.278 443.453 283.595 443.277C283.911 443.102 284.069 442.826 284.069 442.451C284.069 442.146 283.94 441.906 283.683 441.73C283.431 441.549 283 441.396 282.391 441.273C281.928 441.18 281.512 441.089 281.143 441.001C280.779 440.913 280.466 440.828 280.202 440.746C279.944 440.658 279.733 440.576 279.569 440.5C279.083 440.26 278.711 439.952 278.453 439.577C278.201 439.202 278.075 438.739 278.075 438.188C278.075 437.28 278.424 436.574 279.121 436.07C279.824 435.561 280.817 435.306 282.101 435.306C283.231 435.306 284.14 435.525 284.825 435.965C285.517 436.404 285.947 437.04 286.117 437.872L283.929 438.101C283.858 437.714 283.686 437.427 283.41 437.239C283.135 437.046 282.698 436.949 282.101 436.949C281.515 436.949 281.075 437.025 280.782 437.178C280.489 437.324 280.343 437.573 280.343 437.925C280.343 438.2 280.454 438.42 280.677 438.584C280.905 438.742 281.286 438.874 281.819 438.979C282.563 439.132 283.223 439.29 283.797 439.454C284.377 439.612 284.843 439.803 285.194 440.025C285.54 440.248 285.815 440.535 286.021 440.887C286.231 441.232 286.337 441.678 286.337 442.223ZM292.858 444.859C292.261 445.059 291.566 445.158 290.775 445.158C290.049 445.158 289.489 444.962 289.097 444.569C288.704 444.171 288.508 443.57 288.508 442.768V437.16H287.304V435.49H288.631L289.404 433.258H290.951V435.49H292.753V437.16H290.951V442.1C290.951 442.562 291.039 442.905 291.215 443.128C291.391 443.345 291.663 443.453 292.032 443.453C292.208 443.453 292.483 443.412 292.858 443.33V444.859ZM296.805 440.333V445H294.335V437.723C294.335 437.201 294.326 436.768 294.309 436.422C294.297 436.07 294.282 435.76 294.265 435.49H296.62C296.632 435.543 296.644 435.66 296.655 435.842C296.667 436.023 296.679 436.229 296.69 436.457C296.702 436.68 296.711 436.891 296.717 437.09C296.729 437.289 296.734 437.433 296.734 437.521H296.77C297.004 436.864 297.218 436.393 297.411 436.105C297.599 435.83 297.821 435.628 298.079 435.499C298.337 435.37 298.659 435.306 299.046 435.306C299.362 435.306 299.617 435.35 299.811 435.438V437.503C299.418 437.415 299.066 437.371 298.756 437.371C298.141 437.371 297.66 437.62 297.314 438.118C296.975 438.616 296.805 439.354 296.805 440.333ZM307.396 443.11C307.067 443.831 306.648 444.355 306.139 444.684C305.635 445.012 305.034 445.176 304.337 445.176C303.329 445.176 302.556 444.868 302.017 444.253C301.478 443.632 301.208 442.724 301.208 441.528V435.49H303.678V440.825C303.678 441.657 303.818 442.284 304.1 442.706C304.381 443.122 304.803 443.33 305.365 443.33C305.963 443.33 306.443 443.075 306.807 442.565C307.176 442.05 307.36 441.391 307.36 440.588V435.49H309.83V442.873C309.83 443.277 309.836 443.658 309.848 444.016C309.859 444.367 309.877 444.695 309.9 445H307.545C307.51 444.578 307.483 444.209 307.466 443.893C307.448 443.576 307.439 443.315 307.439 443.11H307.396ZM316.316 445.176C314.875 445.176 313.762 444.748 312.977 443.893C312.191 443.031 311.799 441.833 311.799 440.298C311.799 438.728 312.194 437.506 312.985 436.633C313.776 435.754 314.898 435.314 316.352 435.314C317.471 435.314 318.396 435.596 319.129 436.158C319.861 436.721 320.321 437.497 320.509 438.487L318.021 438.61C317.951 438.124 317.775 437.737 317.494 437.45C317.213 437.157 316.814 437.011 316.299 437.011C315.66 437.011 315.183 437.277 314.866 437.811C314.55 438.338 314.392 439.135 314.392 440.201C314.392 441.297 314.553 442.12 314.875 442.671C315.203 443.216 315.689 443.488 316.334 443.488C316.803 443.488 317.195 443.342 317.512 443.049C317.828 442.75 318.024 442.308 318.101 441.722L320.579 441.836C320.491 442.504 320.254 443.09 319.867 443.594C319.486 444.092 318.991 444.481 318.382 444.763C317.772 445.038 317.084 445.176 316.316 445.176ZM326.89 444.859C326.292 445.059 325.598 445.158 324.807 445.158C324.08 445.158 323.521 444.962 323.128 444.569C322.735 444.171 322.539 443.57 322.539 442.768V437.16H321.335V435.49H322.662L323.436 433.258H324.982V435.49H326.784V437.16H324.982V442.1C324.982 442.562 325.07 442.905 325.246 443.128C325.422 443.345 325.694 443.453 326.063 443.453C326.239 443.453 326.515 443.412 326.89 443.33V444.859ZM330.836 431.957V433.776H328.366V431.957H330.836ZM330.836 435.49V445H328.366V435.49H330.836ZM342.411 440.236C342.411 441.777 341.983 442.987 341.128 443.866C340.272 444.739 339.089 445.176 337.577 445.176C336.095 445.176 334.932 444.736 334.088 443.857C333.244 442.979 332.822 441.771 332.822 440.236C332.822 438.707 333.244 437.506 334.088 436.633C334.932 435.754 336.112 435.314 337.63 435.314C339.183 435.314 340.366 435.739 341.181 436.589C342.001 437.433 342.411 438.648 342.411 440.236ZM339.827 440.236C339.827 439.105 339.643 438.285 339.273 437.775C338.904 437.266 338.368 437.011 337.665 437.011C336.915 437.011 336.353 437.28 335.978 437.819C335.603 438.353 335.415 439.158 335.415 440.236C335.415 441.297 335.597 442.105 335.96 442.662C336.329 443.213 336.859 443.488 337.551 443.488C338.312 443.488 338.881 443.219 339.256 442.68C339.637 442.135 339.827 441.32 339.827 440.236ZM346.85 439.902V445H344.38V437.617C344.38 437.107 344.371 436.691 344.354 436.369C344.342 436.041 344.327 435.748 344.31 435.49H346.665C346.677 435.561 346.691 435.728 346.709 435.991C346.727 436.249 346.741 436.516 346.753 436.791C346.771 437.061 346.779 437.257 346.779 437.38H346.814C347.148 436.653 347.567 436.126 348.071 435.798C348.575 435.47 349.176 435.306 349.873 435.306C350.881 435.306 351.654 435.616 352.193 436.237C352.732 436.858 353.002 437.767 353.002 438.962V445H350.541V439.665C350.541 438.827 350.4 438.2 350.119 437.784C349.838 437.368 349.413 437.16 348.845 437.16C348.247 437.16 347.764 437.418 347.395 437.934C347.031 438.443 346.85 439.1 346.85 439.902Z" fill="white"/>
<path d="M304.245 110.751C304.245 112.04 303.984 113.168 303.463 114.135C302.947 115.096 302.218 115.843 301.274 116.376C300.337 116.909 299.235 117.176 297.97 117.176C296.675 117.176 295.562 116.918 294.63 116.402C293.698 115.881 292.983 115.14 292.485 114.179C291.987 113.218 291.738 112.075 291.738 110.751C291.738 109.427 291.984 108.293 292.477 107.35C292.975 106.406 293.689 105.686 294.621 105.188C295.559 104.684 296.681 104.432 297.987 104.432C299.3 104.432 300.422 104.687 301.354 105.196C302.285 105.7 303 106.424 303.498 107.367C303.996 108.311 304.245 109.438 304.245 110.751ZM301.6 110.751C301.6 109.415 301.283 108.369 300.65 107.613C300.018 106.852 299.13 106.471 297.987 106.471C296.827 106.471 295.931 106.849 295.298 107.604C294.665 108.354 294.349 109.403 294.349 110.751C294.349 111.653 294.495 112.433 294.788 113.089C295.081 113.745 295.497 114.252 296.036 114.609C296.581 114.961 297.226 115.137 297.97 115.137C299.13 115.137 300.023 114.756 300.65 113.994C301.283 113.232 301.6 112.151 301.6 110.751ZM308.736 103.957V105.776H306.267V103.957H308.736ZM308.736 107.49V117H306.267V107.49H308.736ZM313.746 103.957V117H311.276V103.957H313.746ZM323.493 117.176C322.573 117.176 321.855 116.927 321.34 116.429C320.824 115.925 320.566 115.219 320.566 114.311C320.566 113.326 320.886 112.579 321.524 112.069C322.169 111.56 323.101 111.293 324.319 111.27L326.367 111.234V110.751C326.367 110.13 326.259 109.67 326.042 109.371C325.825 109.066 325.471 108.914 324.979 108.914C324.521 108.914 324.185 109.02 323.968 109.23C323.757 109.436 323.625 109.778 323.572 110.259L320.997 110.136C321.319 108.255 322.682 107.314 325.084 107.314C326.285 107.314 327.211 107.61 327.861 108.202C328.512 108.794 328.837 109.635 328.837 110.725V114.188C328.837 114.721 328.896 115.09 329.013 115.295C329.136 115.494 329.338 115.594 329.619 115.594C329.807 115.594 329.988 115.576 330.164 115.541V116.877C329.859 116.953 329.599 117.009 329.382 117.044C329.165 117.085 328.898 117.105 328.582 117.105C327.961 117.105 327.501 116.953 327.202 116.648C326.909 116.344 326.733 115.896 326.675 115.304H326.622C326.276 115.925 325.843 116.394 325.321 116.71C324.8 117.021 324.19 117.176 323.493 117.176ZM326.367 112.597L325.102 112.614C324.521 112.644 324.114 112.705 323.88 112.799C323.64 112.904 323.455 113.062 323.326 113.273C323.203 113.484 323.142 113.766 323.142 114.117C323.142 114.568 323.244 114.905 323.449 115.128C323.66 115.345 323.938 115.453 324.284 115.453C324.671 115.453 325.025 115.348 325.348 115.137C325.664 114.926 325.913 114.636 326.095 114.267C326.276 113.892 326.367 113.496 326.367 113.08V112.597ZM333.785 111.902V117H331.315V109.617C331.315 109.107 331.307 108.691 331.289 108.369C331.277 108.041 331.263 107.748 331.245 107.49H333.601C333.612 107.561 333.627 107.728 333.645 107.991C333.662 108.249 333.677 108.516 333.688 108.791C333.706 109.061 333.715 109.257 333.715 109.38H333.75C334.084 108.653 334.503 108.126 335.007 107.798C335.511 107.47 336.111 107.306 336.809 107.306C337.816 107.306 338.59 107.616 339.129 108.237C339.668 108.858 339.938 109.767 339.938 110.962V117H337.477V111.665C337.477 110.827 337.336 110.2 337.055 109.784C336.773 109.368 336.349 109.16 335.78 109.16C335.183 109.16 334.699 109.418 334.33 109.934C333.967 110.443 333.785 111.1 333.785 111.902ZM348.48 117C348.469 116.941 348.451 116.818 348.428 116.631C348.404 116.443 348.384 116.238 348.366 116.016C348.354 115.793 348.349 115.605 348.349 115.453H348.313C348.044 116.027 347.657 116.458 347.153 116.745C346.649 117.032 346.022 117.176 345.272 117.176C344.165 117.176 343.31 116.745 342.706 115.884C342.103 115.017 341.801 113.807 341.801 112.254C341.801 110.678 342.117 109.462 342.75 108.606C343.389 107.745 344.291 107.314 345.457 107.314C346.131 107.314 346.711 107.455 347.197 107.736C347.689 108.018 348.067 108.437 348.331 108.993H348.349L348.331 107.429V103.957H350.801V114.926C350.801 115.219 350.807 115.538 350.818 115.884C350.83 116.229 350.848 116.602 350.871 117H348.48ZM344.376 112.254C344.376 113.332 344.537 114.141 344.859 114.68C345.188 115.219 345.674 115.488 346.318 115.488C346.969 115.488 347.473 115.204 347.83 114.636C348.188 114.062 348.366 113.247 348.366 112.192C348.366 111.167 348.193 110.379 347.848 109.828C347.508 109.271 347.004 108.993 346.336 108.993C345.674 108.993 345.182 109.263 344.859 109.802C344.537 110.335 344.376 111.152 344.376 112.254ZM364.16 115.146C364.834 115.146 365.487 115.049 366.12 114.855C366.753 114.656 367.242 114.404 367.588 114.1V112.386H364.564V110.47H369.961V115.022C369.305 115.696 368.449 116.224 367.395 116.604C366.346 116.985 365.244 117.176 364.09 117.176C362.748 117.176 361.608 116.927 360.671 116.429C359.739 115.925 359.03 115.195 358.544 114.24C358.058 113.279 357.814 112.116 357.814 110.751C357.814 108.712 358.359 107.15 359.449 106.066C360.539 104.977 362.106 104.432 364.151 104.432C365.604 104.432 366.794 104.701 367.72 105.24C368.646 105.773 369.305 106.579 369.697 107.657L367.307 108.378C367.049 107.751 366.645 107.276 366.094 106.954C365.543 106.632 364.896 106.471 364.151 106.471C362.933 106.471 362.007 106.84 361.374 107.578C360.741 108.316 360.425 109.374 360.425 110.751C360.425 112.151 360.75 113.235 361.4 114.003C362.057 114.765 362.977 115.146 364.16 115.146ZM374.54 117.176C373.62 117.176 372.902 116.927 372.387 116.429C371.871 115.925 371.613 115.219 371.613 114.311C371.613 113.326 371.933 112.579 372.571 112.069C373.216 111.56 374.147 111.293 375.366 111.27L377.414 111.234V110.751C377.414 110.13 377.306 109.67 377.089 109.371C376.872 109.066 376.518 108.914 376.025 108.914C375.568 108.914 375.231 109.02 375.015 109.23C374.804 109.436 374.672 109.778 374.619 110.259L372.044 110.136C372.366 108.255 373.729 107.314 376.131 107.314C377.332 107.314 378.258 107.61 378.908 108.202C379.559 108.794 379.884 109.635 379.884 110.725V114.188C379.884 114.721 379.942 115.09 380.06 115.295C380.183 115.494 380.385 115.594 380.666 115.594C380.854 115.594 381.035 115.576 381.211 115.541V116.877C380.906 116.953 380.646 117.009 380.429 117.044C380.212 117.085 379.945 117.105 379.629 117.105C379.008 117.105 378.548 116.953 378.249 116.648C377.956 116.344 377.78 115.896 377.722 115.304H377.669C377.323 115.925 376.89 116.394 376.368 116.71C375.847 117.021 375.237 117.176 374.54 117.176ZM377.414 112.597L376.148 112.614C375.568 112.644 375.161 112.705 374.927 112.799C374.687 112.904 374.502 113.062 374.373 113.273C374.25 113.484 374.188 113.766 374.188 114.117C374.188 114.568 374.291 114.905 374.496 115.128C374.707 115.345 374.985 115.453 375.331 115.453C375.718 115.453 376.072 115.348 376.395 115.137C376.711 114.926 376.96 114.636 377.142 114.267C377.323 113.892 377.414 113.496 377.414 113.08V112.597ZM390.378 114.223C390.378 115.143 390 115.866 389.244 116.394C388.494 116.915 387.454 117.176 386.124 117.176C384.817 117.176 383.815 116.971 383.118 116.561C382.427 116.145 381.967 115.5 381.738 114.627L383.909 114.302C384.032 114.753 384.243 115.072 384.542 115.26C384.847 115.447 385.374 115.541 386.124 115.541C386.815 115.541 387.319 115.453 387.636 115.277C387.952 115.102 388.11 114.826 388.11 114.451C388.11 114.146 387.981 113.906 387.724 113.73C387.472 113.549 387.041 113.396 386.432 113.273C385.969 113.18 385.553 113.089 385.184 113.001C384.82 112.913 384.507 112.828 384.243 112.746C383.985 112.658 383.774 112.576 383.61 112.5C383.124 112.26 382.752 111.952 382.494 111.577C382.242 111.202 382.116 110.739 382.116 110.188C382.116 109.28 382.465 108.574 383.162 108.07C383.865 107.561 384.858 107.306 386.142 107.306C387.272 107.306 388.181 107.525 388.866 107.965C389.558 108.404 389.988 109.04 390.158 109.872L387.97 110.101C387.899 109.714 387.727 109.427 387.451 109.239C387.176 109.046 386.739 108.949 386.142 108.949C385.556 108.949 385.116 109.025 384.823 109.178C384.53 109.324 384.384 109.573 384.384 109.925C384.384 110.2 384.495 110.42 384.718 110.584C384.946 110.742 385.327 110.874 385.86 110.979C386.604 111.132 387.264 111.29 387.838 111.454C388.418 111.612 388.884 111.803 389.235 112.025C389.581 112.248 389.856 112.535 390.062 112.887C390.272 113.232 390.378 113.678 390.378 114.223Z" fill="white"/>
<path d="M528.797 99.6162V112H526.204V99.6162H528.797ZM533.736 106.902V112H531.267V104.617C531.267 104.107 531.258 103.691 531.24 103.369C531.229 103.041 531.214 102.748 531.196 102.49H533.552C533.563 102.561 533.578 102.728 533.596 102.991C533.613 103.249 533.628 103.516 533.64 103.791C533.657 104.061 533.666 104.257 533.666 104.38H533.701C534.035 103.653 534.454 103.126 534.958 102.798C535.462 102.47 536.062 102.306 536.76 102.306C537.768 102.306 538.541 102.616 539.08 103.237C539.619 103.858 539.889 104.767 539.889 105.962V112H537.428V106.665C537.428 105.827 537.287 105.2 537.006 104.784C536.725 104.368 536.3 104.16 535.731 104.16C535.134 104.16 534.65 104.418 534.281 104.934C533.918 105.443 533.736 106.1 533.736 106.902ZM545.171 104.16V112H542.71V104.16H541.321V102.49H542.71V101.497C542.71 100.636 542.938 99.9971 543.396 99.5811C543.853 99.165 544.547 98.957 545.479 98.957C545.959 98.957 546.48 99.0039 547.043 99.0977V100.688C546.809 100.636 546.568 100.609 546.322 100.609C545.9 100.609 545.602 100.694 545.426 100.864C545.256 101.028 545.171 101.321 545.171 101.743V102.49H547.043V104.16H545.171ZM550.734 107.333V112H548.265V104.723C548.265 104.201 548.256 103.768 548.238 103.422C548.227 103.07 548.212 102.76 548.194 102.49H550.55C550.562 102.543 550.573 102.66 550.585 102.842C550.597 103.023 550.608 103.229 550.62 103.457C550.632 103.68 550.641 103.891 550.646 104.09C550.658 104.289 550.664 104.433 550.664 104.521H550.699C550.934 103.864 551.147 103.393 551.341 103.105C551.528 102.83 551.751 102.628 552.009 102.499C552.267 102.37 552.589 102.306 552.976 102.306C553.292 102.306 553.547 102.35 553.74 102.438V104.503C553.348 104.415 552.996 104.371 552.686 104.371C552.07 104.371 551.59 104.62 551.244 105.118C550.904 105.616 550.734 106.354 550.734 107.333ZM557.476 112.176C556.556 112.176 555.838 111.927 555.322 111.429C554.807 110.925 554.549 110.219 554.549 109.311C554.549 108.326 554.868 107.579 555.507 107.069C556.151 106.56 557.083 106.293 558.302 106.27L560.35 106.234V105.751C560.35 105.13 560.241 104.67 560.024 104.371C559.808 104.066 559.453 103.914 558.961 103.914C558.504 103.914 558.167 104.02 557.95 104.23C557.739 104.436 557.607 104.778 557.555 105.259L554.979 105.136C555.302 103.255 556.664 102.314 559.066 102.314C560.268 102.314 561.193 102.61 561.844 103.202C562.494 103.794 562.819 104.635 562.819 105.725V109.188C562.819 109.721 562.878 110.09 562.995 110.295C563.118 110.494 563.32 110.594 563.602 110.594C563.789 110.594 563.971 110.576 564.146 110.541V111.877C563.842 111.953 563.581 112.009 563.364 112.044C563.147 112.085 562.881 112.105 562.564 112.105C561.943 112.105 561.483 111.953 561.185 111.648C560.892 111.344 560.716 110.896 560.657 110.304H560.604C560.259 110.925 559.825 111.394 559.304 111.71C558.782 112.021 558.173 112.176 557.476 112.176ZM560.35 107.597L559.084 107.614C558.504 107.644 558.097 107.705 557.862 107.799C557.622 107.904 557.438 108.062 557.309 108.273C557.186 108.484 557.124 108.766 557.124 109.117C557.124 109.568 557.227 109.905 557.432 110.128C557.643 110.345 557.921 110.453 558.267 110.453C558.653 110.453 559.008 110.348 559.33 110.137C559.646 109.926 559.896 109.636 560.077 109.267C560.259 108.892 560.35 108.496 560.35 108.08V107.597ZM573.313 109.223C573.313 110.143 572.936 110.866 572.18 111.394C571.43 111.915 570.39 112.176 569.06 112.176C567.753 112.176 566.751 111.971 566.054 111.561C565.362 111.145 564.902 110.5 564.674 109.627L566.845 109.302C566.968 109.753 567.179 110.072 567.478 110.26C567.782 110.447 568.31 110.541 569.06 110.541C569.751 110.541 570.255 110.453 570.571 110.277C570.888 110.102 571.046 109.826 571.046 109.451C571.046 109.146 570.917 108.906 570.659 108.73C570.407 108.549 569.977 108.396 569.367 108.273C568.904 108.18 568.488 108.089 568.119 108.001C567.756 107.913 567.442 107.828 567.179 107.746C566.921 107.658 566.71 107.576 566.546 107.5C566.06 107.26 565.688 106.952 565.43 106.577C565.178 106.202 565.052 105.739 565.052 105.188C565.052 104.28 565.4 103.574 566.098 103.07C566.801 102.561 567.794 102.306 569.077 102.306C570.208 102.306 571.116 102.525 571.802 102.965C572.493 103.404 572.924 104.04 573.094 104.872L570.905 105.101C570.835 104.714 570.662 104.427 570.387 104.239C570.111 104.046 569.675 103.949 569.077 103.949C568.491 103.949 568.052 104.025 567.759 104.178C567.466 104.324 567.319 104.573 567.319 104.925C567.319 105.2 567.431 105.42 567.653 105.584C567.882 105.742 568.263 105.874 568.796 105.979C569.54 106.132 570.199 106.29 570.773 106.454C571.354 106.612 571.819 106.803 572.171 107.025C572.517 107.248 572.792 107.535 572.997 107.887C573.208 108.232 573.313 108.678 573.313 109.223ZM579.835 111.859C579.237 112.059 578.543 112.158 577.752 112.158C577.025 112.158 576.466 111.962 576.073 111.569C575.681 111.171 575.484 110.57 575.484 109.768V104.16H574.28V102.49H575.607L576.381 100.258H577.928V102.49H579.729V104.16H577.928V109.1C577.928 109.562 578.016 109.905 578.191 110.128C578.367 110.345 578.64 110.453 579.009 110.453C579.185 110.453 579.46 110.412 579.835 110.33V111.859ZM583.781 107.333V112H581.312V104.723C581.312 104.201 581.303 103.768 581.285 103.422C581.273 103.07 581.259 102.76 581.241 102.49H583.597C583.608 102.543 583.62 102.66 583.632 102.842C583.644 103.023 583.655 103.229 583.667 103.457C583.679 103.68 583.688 103.891 583.693 104.09C583.705 104.289 583.711 104.433 583.711 104.521H583.746C583.98 103.864 584.194 103.393 584.388 103.105C584.575 102.83 584.798 102.628 585.056 102.499C585.313 102.37 585.636 102.306 586.022 102.306C586.339 102.306 586.594 102.35 586.787 102.438V104.503C586.395 104.415 586.043 104.371 585.732 104.371C585.117 104.371 584.637 104.62 584.291 105.118C583.951 105.616 583.781 106.354 583.781 107.333ZM594.372 110.11C594.044 110.831 593.625 111.355 593.115 111.684C592.611 112.012 592.011 112.176 591.313 112.176C590.306 112.176 589.532 111.868 588.993 111.253C588.454 110.632 588.185 109.724 588.185 108.528V102.49H590.654V107.825C590.654 108.657 590.795 109.284 591.076 109.706C591.357 110.122 591.779 110.33 592.342 110.33C592.939 110.33 593.42 110.075 593.783 109.565C594.152 109.05 594.337 108.391 594.337 107.588V102.49H596.807V109.873C596.807 110.277 596.812 110.658 596.824 111.016C596.836 111.367 596.854 111.695 596.877 112H594.521C594.486 111.578 594.46 111.209 594.442 110.893C594.425 110.576 594.416 110.315 594.416 110.11H594.372ZM603.293 112.176C601.852 112.176 600.738 111.748 599.953 110.893C599.168 110.031 598.775 108.833 598.775 107.298C598.775 105.728 599.171 104.506 599.962 103.633C600.753 102.754 601.875 102.314 603.328 102.314C604.447 102.314 605.373 102.596 606.105 103.158C606.838 103.721 607.298 104.497 607.485 105.487L604.998 105.61C604.928 105.124 604.752 104.737 604.471 104.45C604.189 104.157 603.791 104.011 603.275 104.011C602.637 104.011 602.159 104.277 601.843 104.811C601.526 105.338 601.368 106.135 601.368 107.201C601.368 108.297 601.529 109.12 601.852 109.671C602.18 110.216 602.666 110.488 603.311 110.488C603.779 110.488 604.172 110.342 604.488 110.049C604.805 109.75 605.001 109.308 605.077 108.722L607.556 108.836C607.468 109.504 607.23 110.09 606.844 110.594C606.463 111.092 605.968 111.481 605.358 111.763C604.749 112.038 604.061 112.176 603.293 112.176ZM613.866 111.859C613.269 112.059 612.574 112.158 611.783 112.158C611.057 112.158 610.497 111.962 610.104 111.569C609.712 111.171 609.516 110.57 609.516 109.768V104.16H608.312V102.49H609.639L610.412 100.258H611.959V102.49H613.761V104.16H611.959V109.1C611.959 109.562 612.047 109.905 612.223 110.128C612.398 110.345 612.671 110.453 613.04 110.453C613.216 110.453 613.491 110.412 613.866 110.33V111.859ZM621.39 110.11C621.062 110.831 620.643 111.355 620.133 111.684C619.629 112.012 619.028 112.176 618.331 112.176C617.323 112.176 616.55 111.868 616.011 111.253C615.472 110.632 615.202 109.724 615.202 108.528V102.49H617.672V107.825C617.672 108.657 617.812 109.284 618.094 109.706C618.375 110.122 618.797 110.33 619.359 110.33C619.957 110.33 620.438 110.075 620.801 109.565C621.17 109.05 621.354 108.391 621.354 107.588V102.49H623.824V109.873C623.824 110.277 623.83 110.658 623.842 111.016C623.854 111.367 623.871 111.695 623.895 112H621.539C621.504 111.578 621.478 111.209 621.46 110.893C621.442 110.576 621.434 110.315 621.434 110.11H621.39ZM628.816 107.333V112H626.347V104.723C626.347 104.201 626.338 103.768 626.32 103.422C626.309 103.07 626.294 102.76 626.276 102.49H628.632C628.644 102.543 628.655 102.66 628.667 102.842C628.679 103.023 628.69 103.229 628.702 103.457C628.714 103.68 628.723 103.891 628.729 104.09C628.74 104.289 628.746 104.433 628.746 104.521H628.781C629.016 103.864 629.229 103.393 629.423 103.105C629.61 102.83 629.833 102.628 630.091 102.499C630.349 102.37 630.671 102.306 631.058 102.306C631.374 102.306 631.629 102.35 631.822 102.438V104.503C631.43 104.415 631.078 104.371 630.768 104.371C630.152 104.371 629.672 104.62 629.326 105.118C628.986 105.616 628.816 106.354 628.816 107.333ZM635.399 107.72C635.399 108.646 635.569 109.346 635.909 109.82C636.255 110.289 636.744 110.523 637.377 110.523C637.811 110.523 638.165 110.43 638.44 110.242C638.722 110.049 638.918 109.765 639.029 109.39L641.358 109.592C640.685 111.314 639.316 112.176 637.254 112.176C635.824 112.176 634.726 111.754 633.958 110.91C633.19 110.061 632.807 108.824 632.807 107.201C632.807 105.631 633.196 104.424 633.976 103.58C634.755 102.736 635.859 102.314 637.289 102.314C638.654 102.314 639.697 102.769 640.418 103.677C641.139 104.579 641.499 105.903 641.499 107.649V107.72H635.399ZM639.108 106.173C639.062 105.405 638.877 104.831 638.555 104.45C638.232 104.063 637.799 103.87 637.254 103.87C636.674 103.87 636.226 104.072 635.909 104.477C635.599 104.881 635.435 105.446 635.417 106.173H639.108Z" fill="white"/>
<path d="M560.243 128.716C560.243 130.04 559.985 131.171 559.47 132.108C558.96 133.046 558.251 133.764 557.343 134.262C556.44 134.754 555.397 135 554.214 135H549.204V122.616H553.687C555.772 122.616 557.387 123.144 558.529 124.198C559.672 125.247 560.243 126.753 560.243 128.716ZM557.633 128.716C557.633 127.386 557.287 126.372 556.596 125.675C555.904 124.972 554.917 124.62 553.634 124.62H551.797V132.996H553.994C554.738 132.996 555.38 132.823 555.919 132.478C556.464 132.126 556.886 131.631 557.185 130.992C557.483 130.354 557.633 129.595 557.633 128.716ZM564.304 130.72C564.304 131.646 564.474 132.346 564.813 132.82C565.159 133.289 565.648 133.523 566.281 133.523C566.715 133.523 567.069 133.43 567.345 133.242C567.626 133.049 567.822 132.765 567.934 132.39L570.263 132.592C569.589 134.314 568.221 135.176 566.158 135.176C564.729 135.176 563.63 134.754 562.862 133.91C562.095 133.061 561.711 131.824 561.711 130.201C561.711 128.631 562.101 127.424 562.88 126.58C563.659 125.736 564.764 125.314 566.193 125.314C567.559 125.314 568.602 125.769 569.322 126.677C570.043 127.579 570.403 128.903 570.403 130.649V130.72H564.304ZM568.013 129.173C567.966 128.405 567.781 127.831 567.459 127.45C567.137 127.063 566.703 126.87 566.158 126.87C565.578 126.87 565.13 127.072 564.813 127.477C564.503 127.881 564.339 128.446 564.321 129.173H568.013ZM580.3 132.223C580.3 133.143 579.922 133.866 579.166 134.394C578.416 134.915 577.376 135.176 576.046 135.176C574.739 135.176 573.737 134.971 573.04 134.561C572.349 134.145 571.889 133.5 571.66 132.627L573.831 132.302C573.954 132.753 574.165 133.072 574.464 133.26C574.769 133.447 575.296 133.541 576.046 133.541C576.737 133.541 577.241 133.453 577.558 133.277C577.874 133.102 578.032 132.826 578.032 132.451C578.032 132.146 577.903 131.906 577.646 131.73C577.394 131.549 576.963 131.396 576.354 131.273C575.891 131.18 575.475 131.089 575.105 131.001C574.742 130.913 574.429 130.828 574.165 130.746C573.907 130.658 573.696 130.576 573.532 130.5C573.046 130.26 572.674 129.952 572.416 129.577C572.164 129.202 572.038 128.739 572.038 128.188C572.038 127.28 572.387 126.574 573.084 126.07C573.787 125.561 574.78 125.306 576.063 125.306C577.194 125.306 578.103 125.525 578.788 125.965C579.479 126.404 579.91 127.04 580.08 127.872L577.892 128.101C577.821 127.714 577.648 127.427 577.373 127.239C577.098 127.046 576.661 126.949 576.063 126.949C575.478 126.949 575.038 127.025 574.745 127.178C574.452 127.324 574.306 127.573 574.306 127.925C574.306 128.2 574.417 128.42 574.64 128.584C574.868 128.742 575.249 128.874 575.782 128.979C576.526 129.132 577.186 129.29 577.76 129.454C578.34 129.612 578.806 129.803 579.157 130.025C579.503 130.248 579.778 130.535 579.983 130.887C580.194 131.232 580.3 131.678 580.3 132.223ZM584.773 121.957V123.776H582.304V121.957H584.773ZM584.773 125.49V135H582.304V125.49H584.773ZM591.295 138.814C590.135 138.814 589.2 138.592 588.491 138.146C587.788 137.707 587.354 137.077 587.19 136.257L589.66 135.967C589.748 136.348 589.936 136.646 590.223 136.863C590.516 137.08 590.896 137.188 591.365 137.188C592.051 137.188 592.552 136.978 592.868 136.556C593.185 136.134 593.343 135.507 593.343 134.675L593.36 133.233H593.343C593.073 133.819 592.684 134.259 592.174 134.552C591.664 134.839 591.034 134.982 590.284 134.982C589.177 134.982 588.318 134.566 587.709 133.734C587.1 132.902 586.795 131.713 586.795 130.166C586.795 128.613 587.108 127.415 587.735 126.571C588.362 125.728 589.273 125.306 590.469 125.306C591.16 125.306 591.743 125.449 592.218 125.736C592.698 126.018 593.073 126.445 593.343 127.02H593.387C593.387 126.879 593.393 126.703 593.404 126.492C593.416 126.281 593.431 126.079 593.448 125.886C593.472 125.692 593.492 125.561 593.51 125.49H595.848C595.812 126.123 595.795 126.855 595.795 127.688V134.71C595.795 136.063 595.411 137.086 594.644 137.777C593.876 138.469 592.76 138.814 591.295 138.814ZM593.36 130.113C593.36 129.135 593.185 128.373 592.833 127.828C592.487 127.277 591.992 127.002 591.348 127.002C590.691 127.002 590.196 127.266 589.862 127.793C589.534 128.32 589.37 129.111 589.37 130.166C589.37 131.197 589.531 131.974 589.854 132.495C590.182 133.011 590.674 133.269 591.33 133.269C591.986 133.269 592.487 132.996 592.833 132.451C593.185 131.9 593.36 131.121 593.36 130.113ZM600.787 129.902V135H598.317V127.617C598.317 127.107 598.309 126.691 598.291 126.369C598.279 126.041 598.265 125.748 598.247 125.49H600.603C600.614 125.561 600.629 125.728 600.646 125.991C600.664 126.249 600.679 126.516 600.69 126.791C600.708 127.061 600.717 127.257 600.717 127.38H600.752C601.086 126.653 601.505 126.126 602.009 125.798C602.513 125.47 603.113 125.306 603.811 125.306C604.818 125.306 605.592 125.616 606.131 126.237C606.67 126.858 606.939 127.767 606.939 128.962V135H604.479V129.665C604.479 128.827 604.338 128.2 604.057 127.784C603.775 127.368 603.351 127.16 602.782 127.16C602.185 127.16 601.701 127.418 601.332 127.934C600.969 128.443 600.787 129.1 600.787 129.902Z" fill="white"/>
<rect x="619" y="1" width="75" height="14" fill="white"/>
<rect x="619" y="1" width="75" height="14" fill="white"/>
<rect x="390" y="1" width="75" height="14" fill="white"/>
<rect x="122" y="2" width="112" height="14" fill="white"/>
<rect x="463" y="1" width="75" height="14" fill="white"/>
<rect x="463" y="1" width="75" height="14" fill="white"/>
<rect x="234" y="2" width="75" height="14" fill="white"/>
<rect x="476.999" y="2" width="200.934" height="14" transform="rotate(89.2831 476.999 2)" fill="white"/>
<rect x="477.235" y="293.872" width="134.977" height="14" transform="rotate(89.2831 477.235 293.872)" fill="white"/>
<rect x="479.036" y="493.875" width="57.1704" height="14" transform="rotate(89.2831 479.036 493.875)" fill="white"/>
<rect x="13.9989" y="3" width="79.3692" height="14" transform="rotate(89.2831 13.9989 3)" fill="white"/>
<rect x="14.9989" y="142" width="79.3692" height="14" transform="rotate(89.2831 14.9989 142)" fill="white"/>
<rect x="15.8011" y="213.115" width="95.8421" height="14" transform="rotate(89.2831 15.8011 213.115)" fill="white"/>
<rect x="465" y="202.609" width="141.957" height="14" transform="rotate(-0.488512 465 202.609)" fill="white"/>
<rect x="361.896" y="291.78" width="326.068" height="14" transform="rotate(-0.488512 361.896 291.78)" fill="white"/>
<rect x="621.938" y="498.675" width="79.1218" height="14" transform="rotate(-0.488512 621.938 498.675)" fill="white"/>
<rect x="478" y="499.506" width="61.9424" height="14" transform="rotate(-0.488512 478 499.506)" fill="white"/>
<rect x="13" y="294.78" width="103.892" height="14" transform="rotate(-0.488512 13 294.78)" fill="white"/>
<rect x="326.925" y="204.174" width="137.794" height="14" transform="rotate(-0.488512 326.925 204.174)" fill="white"/>
<rect x="392.878" y="538.741" width="86.9142" height="14" transform="rotate(-0.488512 392.878 538.741)" fill="white"/>
<rect x="224" y="540.741" width="86.9142" height="14" transform="rotate(-0.488512 224 540.741)" fill="white"/>
<rect x="59.9209" y="540.716" width="83.9932" height="14" transform="rotate(-0.488512 59.9209 540.716)" fill="white"/>
<rect x="82.9003" y="206.304" width="152.895" height="14" transform="rotate(-0.488512 82.9003 206.304)" fill="white"/>
<rect x="672.899" y="201.203" width="23.8156" height="14" transform="rotate(-0.488512 672.899 201.203)" fill="white"/>
<rect x="268" y="294.118" width="13.8819" height="14" transform="rotate(-0.488512 268 294.118)" fill="white"/>
<rect x="183" y="295.118" width="13.8819" height="14" transform="rotate(-0.488512 183 295.118)" fill="white"/>
<rect x="2" y="206.203" width="23.8156" height="14" transform="rotate(-0.488512 2 206.203)" fill="white"/>
<rect x="1" y="3.20312" width="23.8156" height="14" transform="rotate(-0.488512 1 3.20312)" fill="white"/>
<rect x="234" y="205.203" width="23.8156" height="14" transform="rotate(-0.488512 234 205.203)" fill="white"/>
<rect x="693.999" width="66.0199" height="14" transform="rotate(89.2831 693.999 0)" fill="white"/>
<rect x="695.837" y="139.027" width="73.0819" height="14" transform="rotate(89.2831 695.837 139.027)" fill="white"/>
<rect x="696.999" y="213" width="135.24" height="14" transform="rotate(89.2831 696.999 213)" fill="white"/>
<rect x="699.999" y="429" width="83.006" height="14" transform="rotate(89.2831 699.999 429)" fill="white"/>
<rect x="71.3979" y="294.882" width="126.028" height="14" transform="rotate(89.2831 71.3979 294.882)" fill="white"/>
<rect x="72.9989" y="498" width="52.1336" height="14" transform="rotate(89.2831 72.9989 498)" fill="white"/>
<rect x="247.999" y="2" width="204.884" height="14" transform="rotate(89.2831 247.999 2)" fill="white"/>
<rect x="247.999" y="2" width="204.884" height="14" transform="rotate(89.2831 247.999 2)" fill="white"/>
<rect x="538.5" y="1.5" width="80" height="13" stroke="white"/>
<line x1="538.458" y1="7.5" x2="618.542" y2="7.5" stroke="white"/>
<rect x="538.5" y="1.5" width="80" height="13" stroke="white"/>
<line x1="538.458" y1="7.5" x2="618.542" y2="7.5" stroke="white"/>
<rect x="309.5" y="2.5" width="80" height="13" stroke="white"/>
<line x1="309.458" y1="8.5" x2="389.542" y2="8.5" stroke="white"/>
<rect x="540.5" y="499.5" width="81" height="13" stroke="white"/>
<line x1="540.463" y1="505.5" x2="621.537" y2="505.5" stroke="white"/>
<rect x="310.5" y="539.5" width="81" height="13" stroke="white"/>
<line x1="310.463" y1="545.5" x2="391.537" y2="545.5" stroke="white"/>
<rect x="141.5" y="540.5" width="81" height="13" stroke="white"/>
<line x1="141.463" y1="546.5" x2="222.537" y2="546.5" stroke="white"/>
<rect x="25.5" y="3.5" width="96" height="13" stroke="white"/>
<line x1="25.548" y1="9.5" x2="121.452" y2="9.5" stroke="white"/>
<rect x="698.666" y="348.527" width="81.9378" height="13" transform="rotate(90.115 698.666 348.527)" stroke="white"/>
<line x1="692.666" y1="348.484" x2="692.501" y2="430.484" stroke="white"/>
<rect x="693.255" y="24.4052" width="136.98" height="13" transform="rotate(88.936 693.255 24.4052)" stroke="white"/>
<line x1="687.261" y1="24.7964" x2="689.795" y2="161.194" stroke="white"/>
<rect x="14.6655" y="65.5273" width="81.9378" height="13" transform="rotate(90.115 14.6655 65.5273)" stroke="white"/>
<line x1="8.66559" y1="65.4839" x2="8.50103" y2="147.484" stroke="white"/>
<line x1="596" y1="207.5" x2="685" y2="207.5" stroke="white"/>
<line x1="274.997" y1="300.5" x2="446.997" y2="299.5" stroke="white"/>
<line x1="24.9971" y1="301.5" x2="196.997" y2="300.5" stroke="white"/>
<line x1="25" y1="212.5" x2="114" y2="212.5" stroke="white"/>
<line x1="60" y1="420.5" x2="149" y2="420.5" stroke="white"/>
<line x1="472" y1="493.5" x2="545" y2="493.5" stroke="white"/>
<line x1="258" y1="211.5" x2="347" y2="211.5" stroke="white"/>
<line x1="672.5" y1="207" x2="672.5" y2="132" stroke="white"/>
<line x1="25.5" y1="219" x2="25.5" y2="144" stroke="white"/>
<line x1="68.5" y1="505.006" x2="67.5" y2="421.006" stroke="white"/>
<line x1="257.5" y1="209" x2="257.5" y2="134" stroke="white"/>
<line x1="471.5" y1="498" x2="471.5" y2="423" stroke="white"/>
<path d="M259 134C278.833 134 320.2 149.8 327 213" stroke="white"/>
<path d="M25 144C44.8333 144 86.2 159.8 93 223" stroke="white"/>
<path d="M148.817 420.65C149.017 442.913 133.257 489.493 68.6121 497.708" stroke="white"/>
<path d="M672 133.052C657.694 132.039 624.667 145.411 607 207" stroke="white"/>
<path d="M545.009 493C546.009 478.694 532.606 445.678 471 428.07" stroke="white"/>
</svg>
