<svg width="1032" height="534" viewBox="0 0 1032 534" fill="none" xmlns="http://www.w3.org/2000/svg">
<path fill-rule="evenodd" clip-rule="evenodd" d="M682.576 80.4939L673.185 78.2722L735.233 128.831L733.528 122.011L682.576 80.4939ZM650.689 72.9501L660.08 75.1718L737.612 138.347L739.316 145.167L650.689 72.9501ZM637.584 69.8497L628.191 67.6275L743.4 161.504L741.695 154.683L637.584 69.8497ZM605.694 62.3053L615.086 64.5272L745.779 171.02L747.484 177.84L605.694 62.3053ZM592.589 59.205L583.198 56.9833L751.567 194.175L749.862 187.356L592.589 59.205ZM574.76 63.1162L577.676 60.0613L753.946 203.692L755.65 210.511L574.76 63.1162ZM570.692 67.379L567.776 70.4339L759.734 226.847L758.029 220.028L570.692 67.379ZM560.792 77.7517L563.708 74.6967L762.113 236.363L762.491 237.878L760.223 240.254L560.792 77.7517ZM556.723 82.0146L553.808 85.0692L753.239 247.572L756.155 244.517L556.723 82.0146ZM546.824 92.3868L549.74 89.332L749.171 251.835L746.255 254.889L546.824 92.3868ZM542.756 96.6496L539.84 99.7045L739.271 262.207L742.187 259.152L542.756 96.6496ZM532.856 107.022L535.771 103.967L735.203 266.47L732.287 269.525L532.856 107.022ZM528.787 111.285L525.871 114.34L725.302 276.843L728.218 273.788L528.787 111.285ZM518.887 121.658L521.803 118.603L721.234 281.106L718.318 284.161L518.887 121.658ZM514.819 125.921L511.903 128.976L711.334 291.479L714.25 288.424L514.819 125.921ZM504.919 136.293L507.835 133.239L707.266 295.741L704.35 298.796L504.919 136.293ZM500.851 140.556L497.935 143.611L697.366 306.114L700.282 303.059L500.851 140.556ZM490.951 150.929L493.867 147.874L693.298 310.377L690.382 313.432L490.951 150.929ZM486.882 155.192L483.967 158.247L683.398 320.749L686.314 317.694L486.882 155.192ZM476.983 165.564L479.898 162.509L679.329 325.012L676.414 328.067L476.983 165.564ZM473.478 170.287L475.183 177.106L669.43 335.384L672.345 332.33L473.478 170.287ZM479.266 193.442L477.562 186.622L665.362 339.647L662.446 342.702L479.266 193.442ZM481.645 202.958L483.35 209.778L655.462 350.02L658.377 346.965L481.645 202.958ZM487.434 226.114L485.729 219.294L644.111 348.349L634.719 346.127L487.434 226.114ZM489.812 235.631L491.517 242.45L612.223 340.805L621.614 343.027L489.812 235.631ZM495.6 258.786L493.896 251.967L599.118 337.705L589.726 335.483L495.6 258.786ZM497.979 268.303L499.684 275.122L567.23 330.161L576.621 332.382L497.979 268.303ZM503.768 291.459L502.063 284.638L554.125 327.06L544.732 324.838L503.768 291.459ZM506.147 300.975L510.061 316.636L531.627 321.738L506.147 300.975ZM731.149 112.495L725.7 90.6962L695.681 83.5943L731.149 112.495Z" fill="#D25555" fill-opacity="0.15"/>
<path fill-rule="evenodd" clip-rule="evenodd" d="M898.174 284.05L888.783 281.828L950.832 332.388L949.127 325.568L898.174 284.05ZM866.287 276.506L875.678 278.728L953.211 341.904L954.915 348.723L866.287 276.506ZM853.182 273.406L843.791 271.184L958.999 365.059L957.294 358.239L853.182 273.406ZM821.294 265.862L830.686 268.084L961.378 374.576L963.082 381.396L821.294 265.862ZM808.189 262.761L798.797 260.539L967.166 397.731L965.461 390.912L808.189 262.761ZM790.359 266.672L793.275 263.617L969.545 407.248L971.249 414.067L790.359 266.672ZM786.291 270.935L783.375 273.99L975.333 430.403L973.628 423.584L786.291 270.935ZM776.391 281.308L779.307 278.253L977.712 439.919L978.09 441.434L975.822 443.81L776.391 281.308ZM772.323 285.57L769.407 288.626L968.838 451.128L971.754 448.073L772.323 285.57ZM762.423 295.943L765.338 292.888L964.769 455.391L961.854 458.446L762.423 295.943ZM758.354 300.206L755.439 303.261L954.87 465.764L957.785 462.709L758.354 300.206ZM748.455 310.579L751.37 307.524L950.801 470.026L947.886 473.081L748.455 310.579ZM744.386 314.841L741.471 317.896L940.902 480.399L943.817 477.344L744.386 314.841ZM734.486 325.214L737.402 322.159L936.833 484.662L933.917 487.717L734.486 325.214ZM730.418 329.477L727.502 332.532L926.933 495.035L929.849 491.98L730.418 329.477ZM720.518 339.85L723.433 336.795L922.864 499.298L919.949 502.352L720.518 339.85ZM716.449 344.113L713.534 347.167L912.965 509.67L915.88 506.615L716.449 344.113ZM706.55 354.485L709.466 351.43L908.897 513.933L905.981 516.988L706.55 354.485ZM702.481 358.748L699.566 361.803L898.997 524.305L901.912 521.251L702.481 358.748ZM692.582 369.12L695.497 366.066L894.928 528.568L892.013 531.623L692.582 369.12ZM689.077 373.843L690.782 380.662L885.029 538.941L887.944 535.886L689.077 373.843ZM694.865 396.998L693.161 390.179L880.96 543.204L878.045 546.258L694.865 396.998ZM697.244 406.514L698.949 413.334L871.06 553.576L873.976 550.521L697.244 406.514ZM703.033 429.671L701.328 422.851L859.71 551.905L850.317 549.683L703.033 429.671ZM705.411 439.187L707.116 446.007L827.821 544.361L837.212 546.583L705.411 439.187ZM711.199 462.343L709.495 455.523L814.716 541.261L805.325 539.039L711.199 462.343ZM713.578 471.859L715.283 478.678L782.829 533.717L792.22 535.939L713.578 471.859ZM719.366 495.014L717.662 488.194L769.724 530.617L760.333 528.395L719.366 495.014ZM721.745 504.53L725.66 520.192L747.228 525.294L721.745 504.53ZM946.748 316.052L941.299 294.252L911.279 287.15L946.748 316.052Z" fill="#32912A" fill-opacity="0.15"/>
<path fill-rule="evenodd" clip-rule="evenodd" d="M601.486 376.934L592.094 374.712L654.143 425.272L652.438 418.452L601.486 376.934ZM569.598 369.39L578.989 371.612L656.521 434.788L658.226 441.608L569.598 369.39ZM556.493 366.29L547.101 364.068L662.31 457.944L660.605 451.124L556.493 366.29ZM524.604 358.746L533.996 360.968L664.688 467.46L666.393 474.28L524.604 358.746ZM511.499 355.645L502.108 353.424L670.477 490.616L668.772 483.796L511.499 355.645ZM493.67 359.557L496.586 356.502L672.855 500.132L674.56 506.951L493.67 359.557ZM489.602 363.819L486.686 366.875L678.644 523.288L676.939 516.468L489.602 363.819ZM479.701 374.192L482.617 371.137L681.023 532.804L681.401 534.318L679.132 536.695L479.701 374.192ZM475.633 378.455L472.718 381.51L672.149 544.013L675.064 540.958L475.633 378.455ZM465.734 388.827L468.649 385.773L668.08 548.275L665.165 551.33L465.734 388.827ZM461.665 393.09L458.749 396.145L658.181 558.648L661.096 555.593L461.665 393.09ZM451.765 403.463L454.681 400.408L654.112 562.911L651.196 565.966L451.765 403.463ZM447.697 407.726L444.781 410.781L644.212 573.284L647.128 570.228L447.697 407.726ZM437.797 418.098L440.712 415.044L640.143 577.547L637.228 580.601L437.797 418.098ZM433.728 422.361L430.813 425.416L630.244 587.919L633.16 584.864L433.728 422.361ZM423.829 432.734L426.745 429.679L626.176 592.182L623.26 595.236L423.829 432.734ZM419.76 436.997L416.845 440.052L616.276 602.554L619.192 599.499L419.76 436.997ZM409.86 447.37L412.776 444.315L612.207 606.817L609.291 609.872L409.86 447.37ZM405.792 451.632L402.876 454.687L602.308 617.19L605.223 614.135L405.792 451.632ZM395.892 462.005L398.808 458.95L598.239 621.453L595.323 624.508L395.892 462.005ZM392.388 466.728L394.093 473.547L588.339 631.825L591.255 628.771L392.388 466.728ZM398.176 489.882L396.472 483.064L584.271 636.088L581.355 639.143L398.176 489.882ZM400.555 499.399L402.26 506.218L574.371 646.46L577.287 643.406L400.555 499.399ZM406.343 522.555L404.638 515.735L563.021 644.79L553.629 642.568L406.343 522.555ZM408.722 532.071L410.427 538.891L531.133 637.246L540.524 639.467L408.722 532.071ZM414.51 555.227L412.805 548.407L518.028 634.145L508.635 631.923L414.51 555.227ZM416.889 564.743L418.594 571.563L486.139 626.601L495.53 628.823L416.889 564.743ZM422.677 587.899L420.973 581.079L473.034 623.501L463.643 621.279L422.677 587.899ZM425.056 597.415L428.971 613.076L450.538 618.179L425.056 597.415ZM650.059 408.935L644.61 387.137L614.591 380.035L650.059 408.935Z" fill="#208E95" fill-opacity="0.26"/>
<path fill-rule="evenodd" clip-rule="evenodd" d="M385.886 181.285L376.495 179.063L438.542 229.621L436.838 222.802L385.886 181.285ZM353.999 173.741L363.39 175.962L440.921 239.137L442.626 245.957L353.999 173.741ZM340.894 170.64L331.502 168.419L446.709 262.293L445.005 255.473L340.894 170.64ZM309.005 163.096L318.397 165.318L449.088 271.809L450.793 278.629L309.005 163.096ZM295.9 159.996L286.509 157.774L454.876 294.965L453.172 288.146L295.9 159.996ZM278.07 163.907L280.986 160.852L457.255 304.481L458.96 311.301L278.07 163.907ZM274.002 168.169L271.086 171.224L463.044 327.637L461.339 320.818L274.002 168.169ZM264.102 178.542L267.018 175.487L465.422 337.154L465.801 338.668L463.533 341.044L264.102 178.542ZM260.034 182.804L257.118 185.86L456.549 348.363L459.465 345.307L260.034 182.804ZM250.134 193.177L253.049 190.123L452.48 352.625L449.565 355.68L250.134 193.177ZM246.065 197.44L243.15 200.495L442.581 362.998L445.496 359.943L246.065 197.44ZM236.165 207.813L239.081 204.758L438.512 367.261L435.597 370.316L236.165 207.813ZM232.097 212.076L229.182 215.13L428.613 377.633L431.528 374.578L232.097 212.076ZM222.197 222.448L225.113 219.393L424.544 381.896L421.628 384.951L222.197 222.448ZM218.129 226.711L215.213 229.766L414.644 392.269L417.56 389.214L218.129 226.711ZM208.229 237.084L211.145 234.029L410.576 396.531L407.66 399.587L208.229 237.084ZM204.16 241.347L201.245 244.401L400.676 406.904L403.592 403.849L204.16 241.347ZM194.261 251.719L197.176 248.664L396.608 411.167L393.692 414.222L194.261 251.719ZM190.193 255.982L187.277 259.037L386.708 421.54L389.624 418.484L190.193 255.982ZM180.293 266.355L183.208 263.3L382.639 425.803L379.724 428.857L180.293 266.355ZM176.788 271.077L178.493 277.897L372.74 436.175L375.655 433.12L176.788 271.077ZM182.576 294.232L180.871 287.413L368.671 440.438L365.755 443.493L182.576 294.232ZM184.955 303.749L186.66 310.568L358.771 450.81L361.687 447.756L184.955 303.749ZM190.743 326.905L189.038 320.085L347.421 449.14L338.029 446.918L190.743 326.905ZM193.122 336.421L194.827 343.241L315.532 441.596L324.924 443.817L193.122 336.421ZM198.91 359.576L197.205 352.757L302.427 438.495L293.036 436.274L198.91 359.576ZM201.289 369.093L202.993 375.912L270.541 430.951L279.931 433.173L201.289 369.093ZM207.077 392.248L205.372 385.428L257.436 427.851L248.044 425.629L207.077 392.248ZM209.456 401.764L213.371 417.426L234.939 422.529L209.456 401.764ZM434.459 213.285L429.01 191.487L398.991 184.385L434.459 213.285Z" fill="#C79D5E" fill-opacity="0.26"/>
<path fill-rule="evenodd" clip-rule="evenodd" d="M322.815 490.241L313.423 488.019L375.472 538.578L373.767 531.758L322.815 490.241ZM290.927 482.696L300.318 484.918L377.851 548.094L379.555 554.914L290.927 482.696ZM277.822 479.596L268.43 477.374L383.639 571.25L381.934 564.43L277.822 479.596ZM245.934 472.052L255.325 474.274L386.018 580.766L387.723 587.586L245.934 472.052ZM232.829 468.952L223.438 466.73L391.806 603.921L390.101 597.102L232.829 468.952ZM214.999 472.863L217.915 469.808L394.185 613.437L395.89 620.258L214.999 472.863ZM210.931 477.126L208.015 480.181L399.973 636.594L398.268 629.775L210.931 477.126ZM201.031 487.498L203.946 484.444L402.352 646.111L402.73 647.624L400.462 650.001L201.031 487.498ZM196.962 491.761L194.047 494.816L393.478 657.319L396.394 654.264L196.962 491.761ZM187.063 502.134L189.978 499.079L389.409 661.582L386.494 664.636L187.063 502.134ZM182.994 506.397L180.079 509.451L379.51 671.954L382.425 668.899L182.994 506.397ZM173.095 516.769L176.011 513.714L375.442 676.217L372.526 679.272L173.095 516.769ZM169.026 521.032L166.11 524.087L365.541 686.59L368.457 683.535L169.026 521.032ZM159.126 531.405L162.042 528.35L361.473 690.853L358.557 693.907L159.126 531.405ZM155.058 535.667L152.143 538.722L351.574 701.225L354.489 698.17L155.058 535.667ZM145.158 546.04L148.074 542.985L347.505 705.488L344.589 708.543L145.158 546.04ZM141.089 550.303L138.174 553.358L337.605 715.861L340.521 712.806L141.089 550.303ZM131.19 560.676L134.105 557.621L333.537 720.123L330.621 723.178L131.19 560.676ZM127.121 564.938L124.206 567.993L323.637 730.496L326.552 727.441L127.121 564.938ZM117.222 575.311L120.137 572.256L319.568 734.759L316.653 737.814L117.222 575.311ZM113.717 580.033L115.422 586.853L309.669 745.131L312.584 742.076L113.717 580.033ZM119.506 603.189L117.801 596.37L305.6 749.394L302.684 752.449L119.506 603.189ZM121.884 612.706L123.589 619.525L295.7 759.767L298.616 756.712L121.884 612.706ZM127.673 635.861L125.968 629.041L284.349 758.096L274.958 755.874L127.673 635.861ZM130.051 645.377L131.756 652.197L252.462 750.552L261.853 752.773L130.051 645.377ZM135.839 668.533L134.135 661.713L239.357 747.451L229.966 745.23L135.839 668.533ZM138.218 678.049L139.923 684.869L207.468 739.907L216.861 742.129L138.218 678.049ZM144.007 701.206L142.302 694.386L194.363 736.807L184.971 734.585L144.007 701.206ZM146.386 710.722L150.3 726.382L171.866 731.484L146.386 710.722ZM371.388 522.241L365.939 500.443L335.92 493.341L371.388 522.241Z" fill="#558FD2" fill-opacity="0.26"/>
<path fill-rule="evenodd" clip-rule="evenodd" d="M831.242 580.49L821.851 578.269L883.9 628.828L882.195 622.008L831.242 580.49ZM799.356 572.947L808.746 575.168L886.279 638.344L887.983 645.163L799.356 572.947ZM786.251 569.846L776.859 567.624L892.067 661.5L890.362 654.679L786.251 569.846ZM754.362 562.302L763.754 564.524L894.446 671.016L896.15 677.836L754.362 562.302ZM741.257 559.202L731.866 556.98L900.234 694.171L898.529 687.352L741.257 559.202ZM723.427 563.113L726.343 560.058L902.613 703.688L904.317 710.507L723.427 563.113ZM719.359 567.375L716.443 570.43L908.401 726.843L906.696 720.024L719.359 567.375ZM709.459 577.748L712.375 574.693L910.78 736.359L911.158 737.874L908.891 740.251L709.459 577.748ZM705.391 582.011L702.475 585.065L901.906 747.568L904.822 744.513L705.391 582.011ZM695.491 592.384L698.407 589.328L897.838 751.831L894.922 754.886L695.491 592.384ZM691.422 596.647L688.507 599.701L887.938 762.204L890.853 759.149L691.422 596.647ZM681.523 607.019L684.438 603.964L883.869 766.467L880.954 769.521L681.523 607.019ZM677.454 611.282L674.539 614.337L873.97 776.839L876.886 773.784L677.454 611.282ZM667.554 621.655L670.47 618.599L869.901 781.102L866.985 784.157L667.554 621.655ZM663.486 625.917L660.57 628.972L860.001 791.475L862.917 788.42L663.486 625.917ZM653.586 636.29L656.502 633.235L855.933 795.738L853.018 798.792L653.586 636.29ZM649.518 640.552L646.602 643.607L846.033 806.11L848.949 803.055L649.518 640.552ZM639.618 650.925L642.534 647.87L841.965 810.373L839.049 813.428L639.618 650.925ZM635.55 655.188L632.634 658.243L832.065 820.746L834.981 817.691L635.55 655.188ZM625.65 665.561L628.565 662.506L827.996 825.009L825.081 828.064L625.65 665.561ZM622.145 670.283L623.85 677.102L818.097 835.381L821.012 832.326L622.145 670.283ZM627.933 693.439L626.229 686.619L814.028 839.644L811.113 842.699L627.933 693.439ZM630.312 702.955L632.017 709.775L804.129 850.017L807.044 846.962L630.312 702.955ZM636.1 726.11L634.396 719.291L792.778 848.346L783.387 846.124L636.1 726.11ZM638.479 735.627L640.184 742.447L760.889 840.801L770.282 843.024L638.479 735.627ZM644.267 758.783L642.563 751.964L747.784 837.701L738.393 835.479L644.267 758.783ZM646.646 768.299L648.351 775.119L715.897 830.157L725.288 832.379L646.646 768.299ZM652.434 791.454L650.73 784.635L702.792 827.057L693.401 824.835L652.434 791.454ZM654.813 800.971L658.728 816.632L680.296 821.735L654.813 800.971ZM879.816 612.492L874.367 590.693L844.347 583.591L879.816 612.492Z" fill="#79D2B2" fill-opacity="0.15"/>
<path fill-rule="evenodd" clip-rule="evenodd" d="M107.216 306.447L97.8239 304.225L159.872 354.784L158.168 347.964L107.216 306.447ZM75.328 298.903L84.7189 301.124L162.251 364.3L163.956 371.119L75.328 298.903ZM62.223 295.802L52.8303 293.58L168.039 387.456L166.334 380.636L62.223 295.802ZM30.3336 288.258L39.7253 290.48L170.418 396.973L172.123 403.792L30.3336 288.258ZM17.2286 285.158L7.83858 282.936L176.206 420.127L174.502 413.309L17.2286 285.158ZM-0.599949 289.068L2.3155 286.014L178.585 429.644L180.29 436.463L-0.599949 289.068ZM-4.66846 293.331L-7.58442 296.387L184.373 452.8L182.668 445.979L-4.66846 293.331ZM-14.5681 303.704L-11.6529 300.649L186.752 462.316L187.131 463.83L184.863 466.207L-14.5681 303.704ZM-18.6366 307.967L-21.5525 311.022L177.879 473.525L180.794 470.469L-18.6366 307.967ZM-28.5366 318.339L-25.621 315.285L173.81 477.787L170.895 480.842L-28.5366 318.339ZM-32.6051 322.602L-35.5206 325.657L163.91 488.16L166.826 485.105L-32.6051 322.602ZM-42.5046 332.975L-39.5892 329.92L159.842 492.423L156.927 495.477L-42.5046 332.975ZM-46.5731 337.238L-49.4889 340.293L149.942 502.795L152.858 499.74L-46.5731 337.238ZM-56.4733 347.611L-53.5574 344.556L145.874 507.058L142.958 510.113L-56.4733 347.611ZM-60.5418 351.874L-63.4571 354.928L135.974 517.431L138.889 514.376L-60.5418 351.874ZM-70.4412 362.246L-67.5256 359.191L131.905 521.694L128.99 524.749L-70.4412 362.246ZM-74.5097 366.509L-77.4256 369.564L122.006 532.066L124.921 529.011L-74.5097 366.509ZM-84.4096 376.881L-81.4941 373.827L117.937 536.329L115.021 539.384L-84.4096 376.881ZM-88.4782 381.144L-91.3939 384.199L108.037 546.702L110.953 543.647L-88.4782 381.144ZM-98.378 391.517L-95.4624 388.462L103.969 550.965L101.053 554.02L-98.378 391.517ZM-101.882 396.24L-100.178 403.058L94.0695 561.337L96.9846 558.283L-101.882 396.24ZM-96.0942 419.394L-97.799 412.575L90.0009 565.6L87.0853 568.655L-96.0942 419.394ZM-93.7155 428.911L-92.0106 435.731L80.1009 575.973L83.0167 572.918L-93.7155 428.911ZM-87.927 452.067L-89.6318 445.247L68.75 574.302L59.3578 572.08L-87.927 452.067ZM-85.5482 461.584L-83.8437 468.402L36.8627 566.758L46.2528 568.979L-85.5482 461.584ZM-79.7601 484.739L-81.4649 477.919L23.7577 563.657L14.3659 561.436L-79.7601 484.739ZM-77.3813 494.255L-75.6767 501.075L-8.13041 556.113L1.26088 558.335L-77.3813 494.255ZM-71.5931 517.411L-73.2979 510.591L-21.2354 553.013L-30.627 550.791L-71.5931 517.411ZM-69.2143 526.927L-65.2994 542.588L-43.732 547.691L-69.2143 526.927ZM155.789 338.448L150.34 316.649L120.321 309.547L155.789 338.448Z" fill="#D25555" fill-opacity="0.26"/>
</svg>
