<svg width="1846" height="1512" viewBox="0 0 1846 1512" fill="none" xmlns="http://www.w3.org/2000/svg">
<path fill-rule="evenodd" clip-rule="evenodd" d="M1302.99 105.191L1288.39 101.819L1384.81 178.568L1382.16 168.215L1302.99 105.191ZM1253.44 93.7396L1268.03 97.1124L1388.5 193.014L1391.15 203.366L1253.44 93.7396ZM1233.08 89.0332L1218.48 85.6605L1397.5 228.164L1394.85 217.812L1233.08 89.0332ZM1183.53 77.5814L1198.12 80.9541L1401.19 242.61L1403.84 252.962L1183.53 77.5814ZM1163.17 72.875L1148.57 69.5022L1410.19 277.761L1407.54 267.408L1163.17 72.875ZM1135.46 78.8116L1139.99 74.1743L1413.88 292.206L1416.53 302.559L1135.46 78.8116ZM1129.14 85.2827L1124.61 89.92L1422.88 327.357L1420.23 317.005L1129.14 85.2827ZM1113.76 101.028L1118.29 96.391L1426.57 341.803L1427.16 344.102L1423.64 347.709L1113.76 101.028ZM1107.44 107.499L1102.91 112.137L1412.78 358.818L1417.31 354.181L1107.44 107.499ZM1092.05 123.245L1096.58 118.608L1406.46 365.289L1401.93 369.926L1092.05 123.245ZM1085.73 129.716L1081.2 134.354L1391.08 381.035L1395.61 376.397L1085.73 129.716ZM1070.35 145.462L1074.88 140.825L1384.76 387.506L1380.23 392.143L1070.35 145.462ZM1064.03 151.933L1059.5 156.57L1369.38 403.251L1373.91 398.614L1064.03 151.933ZM1048.65 167.679L1053.18 163.041L1363.05 409.723L1358.52 414.36L1048.65 167.679ZM1042.32 174.15L1037.79 178.787L1347.67 425.468L1352.2 420.831L1042.32 174.15ZM1026.94 189.895L1031.47 185.258L1341.35 431.939L1336.82 436.577L1026.94 189.895ZM1020.62 196.367L1016.09 201.004L1325.97 447.685L1330.5 443.048L1020.62 196.367ZM1005.24 212.112L1009.77 207.475L1319.65 454.156L1315.12 458.793L1005.24 212.112ZM998.916 218.583L994.386 223.221L1304.26 469.902L1308.79 465.264L998.916 218.583ZM983.534 234.329L988.064 229.692L1297.94 476.373L1293.41 481.01L983.534 234.329ZM978.089 241.498L980.737 251.85L1282.56 492.119L1287.09 487.481L978.089 241.498ZM987.082 276.648L984.434 266.296L1276.24 498.59L1271.71 503.227L987.082 276.648ZM990.779 291.094L993.427 301.446L1260.86 514.335L1265.39 509.698L990.779 291.094ZM999.772 326.245L997.124 315.892L1243.22 511.799L1228.63 508.426L999.772 326.245ZM1003.47 340.69L1006.12 351.043L1193.67 500.347L1208.26 503.72L1003.47 340.69ZM1012.46 375.841L1009.81 365.489L1173.31 495.641L1158.72 492.268L1012.46 375.841ZM1016.16 390.287L1018.81 400.639L1123.76 484.189L1138.35 487.561L1016.16 390.287ZM1025.15 425.437L1022.5 415.085L1103.4 479.482L1088.81 476.11L1025.15 425.437ZM1028.85 439.883L1034.93 463.658L1068.44 471.403L1028.85 439.883ZM1378.46 153.77L1369.99 120.679L1323.35 109.898L1378.46 153.77Z" fill="#D25555" fill-opacity="0.15"/>
<path fill-rule="evenodd" clip-rule="evenodd" d="M1637.99 414.191L1623.39 410.819L1719.81 487.568L1717.16 477.215L1637.99 414.191ZM1588.44 402.74L1603.03 406.112L1723.5 502.014L1726.15 512.366L1588.44 402.74ZM1568.08 398.033L1553.48 394.66L1732.5 537.164L1729.85 526.812L1568.08 398.033ZM1518.53 386.581L1533.12 389.954L1736.19 551.61L1738.84 561.962L1518.53 386.581ZM1498.17 381.875L1483.57 378.502L1745.19 586.761L1742.54 576.408L1498.17 381.875ZM1470.46 387.812L1474.99 383.174L1748.88 601.206L1751.53 611.559L1470.46 387.812ZM1464.14 394.283L1459.61 398.92L1757.88 636.357L1755.23 626.005L1464.14 394.283ZM1448.76 410.028L1453.29 405.391L1761.57 650.803L1762.16 653.102L1758.64 656.709L1448.76 410.028ZM1442.44 416.499L1437.91 421.137L1747.78 667.818L1752.31 663.181L1442.44 416.499ZM1427.05 432.245L1431.58 427.608L1741.46 674.289L1736.93 678.926L1427.05 432.245ZM1420.73 438.716L1416.2 443.354L1726.08 690.035L1730.61 685.397L1420.73 438.716ZM1405.35 454.462L1409.88 449.825L1719.76 696.506L1715.23 701.143L1405.35 454.462ZM1399.03 460.933L1394.5 465.57L1704.38 712.251L1708.91 707.614L1399.03 460.933ZM1383.65 476.679L1388.18 472.041L1698.05 718.723L1693.52 723.36L1383.65 476.679ZM1377.32 483.15L1372.79 487.787L1682.67 734.468L1687.2 729.831L1377.32 483.15ZM1361.94 498.895L1366.47 494.258L1676.35 740.939L1671.82 745.577L1361.94 498.895ZM1355.62 505.367L1351.09 510.004L1660.97 756.685L1665.5 752.048L1355.62 505.367ZM1340.24 521.112L1344.77 516.475L1654.65 763.156L1650.12 767.793L1340.24 521.112ZM1333.92 527.583L1329.39 532.221L1639.26 778.902L1643.79 774.264L1333.92 527.583ZM1318.53 543.329L1323.06 538.692L1632.94 785.373L1628.41 790.01L1318.53 543.329ZM1313.09 550.498L1315.74 560.85L1617.56 801.119L1622.09 796.481L1313.09 550.498ZM1322.08 585.648L1319.43 575.296L1611.24 807.59L1606.71 812.227L1322.08 585.648ZM1325.78 600.094L1328.43 610.446L1595.86 823.335L1600.39 818.698L1325.78 600.094ZM1334.77 635.245L1332.12 624.892L1578.22 820.799L1563.63 817.426L1334.77 635.245ZM1338.47 649.69L1341.12 660.043L1528.67 809.347L1543.26 812.72L1338.47 649.69ZM1347.46 684.841L1344.81 674.489L1508.31 804.641L1493.72 801.268L1347.46 684.841ZM1351.16 699.287L1353.81 709.639L1458.76 793.189L1473.35 796.561L1351.16 699.287ZM1360.15 734.437L1357.5 724.085L1438.4 788.482L1423.81 785.11L1360.15 734.437ZM1363.85 748.883L1369.93 772.658L1403.44 780.403L1363.85 748.883ZM1713.46 462.77L1704.99 429.679L1658.35 418.898L1713.46 462.77Z" fill="#32912A" fill-opacity="0.15"/>
<path fill-rule="evenodd" clip-rule="evenodd" d="M1176.99 555.191L1162.39 551.819L1258.81 628.568L1256.16 618.215L1176.99 555.191ZM1127.44 543.74L1142.03 547.112L1262.5 643.014L1265.15 653.366L1127.44 543.74ZM1107.08 539.033L1092.48 535.66L1271.5 678.164L1268.85 667.812L1107.08 539.033ZM1057.53 527.581L1072.12 530.954L1275.19 692.61L1277.84 702.962L1057.53 527.581ZM1037.17 522.875L1022.57 519.502L1284.19 727.761L1281.54 717.408L1037.17 522.875ZM1009.46 528.812L1013.99 524.174L1287.88 742.206L1290.53 752.559L1009.46 528.812ZM1003.14 535.283L998.61 539.92L1296.88 777.357L1294.23 767.005L1003.14 535.283ZM987.758 551.028L992.288 546.391L1300.57 791.803L1301.16 794.102L1297.64 797.709L987.758 551.028ZM981.436 557.499L976.906 562.137L1286.78 808.818L1291.31 804.181L981.436 557.499ZM966.054 573.245L970.584 568.608L1280.46 815.289L1275.93 819.926L966.054 573.245ZM959.732 579.716L955.202 584.354L1265.08 831.035L1269.61 826.397L959.732 579.716ZM944.35 595.462L948.88 590.825L1258.76 837.506L1254.23 842.143L944.35 595.462ZM938.028 601.933L933.498 606.57L1243.38 853.251L1247.91 848.614L938.028 601.933ZM922.646 617.679L927.176 613.041L1237.05 859.723L1232.52 864.36L922.646 617.679ZM916.324 624.15L911.794 628.787L1221.67 875.468L1226.2 870.831L916.324 624.15ZM900.942 639.895L905.472 635.258L1215.35 881.939L1210.82 886.577L900.942 639.895ZM894.62 646.367L890.09 651.004L1199.97 897.685L1204.5 893.048L894.62 646.367ZM879.238 662.112L883.768 657.475L1193.65 904.156L1189.12 908.793L879.238 662.112ZM872.916 668.583L868.386 673.221L1178.26 919.902L1182.79 915.264L872.916 668.583ZM857.534 684.329L862.064 679.692L1171.94 926.373L1167.41 931.01L857.534 684.329ZM852.089 691.498L854.737 701.85L1156.56 942.119L1161.09 937.481L852.089 691.498ZM861.082 726.648L858.434 716.296L1150.24 948.59L1145.71 953.227L861.082 726.648ZM864.779 741.094L867.427 751.446L1134.86 964.335L1139.39 959.698L864.779 741.094ZM873.772 776.245L871.124 765.892L1117.22 961.799L1102.63 958.426L873.772 776.245ZM877.469 790.69L880.117 801.043L1067.67 950.347L1082.26 953.72L877.469 790.69ZM886.462 825.841L883.814 815.489L1047.31 945.641L1032.72 942.268L886.462 825.841ZM890.159 840.287L892.807 850.639L997.761 934.189L1012.35 937.561L890.159 840.287ZM899.152 875.437L896.504 865.085L977.399 929.482L962.806 926.11L899.152 875.437ZM902.849 889.883L908.932 913.658L942.444 921.403L902.849 889.883ZM1252.46 603.77L1243.99 570.679L1197.35 559.898L1252.46 603.77Z" fill="#208E95" fill-opacity="0.26"/>
<path fill-rule="evenodd" clip-rule="evenodd" d="M841.987 258.191L827.395 254.819L923.806 331.568L921.157 321.215L841.987 258.191ZM792.439 246.74L807.032 250.112L927.502 346.014L930.151 356.366L792.439 246.74ZM772.077 242.033L757.484 238.66L936.496 381.164L933.847 370.812L772.077 242.033ZM722.529 230.581L737.122 233.954L940.192 395.61L942.841 405.962L722.529 230.581ZM702.166 225.875L687.574 222.502L949.186 430.761L946.537 420.408L702.166 225.875ZM674.462 231.812L678.992 227.174L952.882 445.206L955.531 455.559L674.462 231.812ZM668.14 238.283L663.61 242.92L961.876 480.357L959.227 470.005L668.14 238.283ZM652.758 254.028L657.288 249.391L965.572 494.803L966.16 497.102L962.636 500.709L652.758 254.028ZM646.436 260.499L641.906 265.137L951.784 511.818L956.314 507.181L646.436 260.499ZM631.054 276.245L635.584 271.608L945.462 518.289L940.932 522.926L631.054 276.245ZM624.732 282.716L620.202 287.354L930.08 534.035L934.61 529.397L624.732 282.716ZM609.35 298.462L613.88 293.825L923.758 540.506L919.228 545.143L609.35 298.462ZM603.029 304.933L598.498 309.57L908.376 556.251L912.906 551.614L603.029 304.933ZM587.646 320.679L592.177 316.041L902.054 562.723L897.524 567.36L587.646 320.679ZM581.325 327.15L576.794 331.787L886.672 578.468L891.202 573.831L581.325 327.15ZM565.942 342.895L570.473 338.258L880.35 584.939L875.82 589.577L565.942 342.895ZM559.621 349.367L555.09 354.004L864.968 600.685L869.498 596.048L559.621 349.367ZM544.238 365.112L548.769 360.475L858.647 607.156L854.116 611.793L544.238 365.112ZM537.917 371.583L533.386 376.221L843.264 622.902L847.795 618.264L537.917 371.583ZM522.534 387.329L527.065 382.692L836.943 629.373L832.412 634.01L522.534 387.329ZM517.089 394.498L519.738 404.85L821.56 645.119L826.091 640.481L517.089 394.498ZM526.083 429.648L523.434 419.296L815.239 651.59L810.708 656.227L526.083 429.648ZM529.779 444.094L532.428 454.446L799.856 667.335L804.387 662.698L529.779 444.094ZM538.773 479.245L536.124 468.892L782.219 664.799L767.627 661.426L538.773 479.245ZM542.469 493.69L545.118 504.043L732.672 653.347L747.264 656.72L542.469 493.69ZM551.463 528.841L548.814 518.489L712.309 648.641L697.717 645.268L551.463 528.841ZM555.159 543.287L557.808 553.639L662.762 637.189L677.354 640.561L555.159 543.287ZM564.153 578.437L561.504 568.085L642.399 632.482L627.806 629.11L564.153 578.437ZM567.849 592.883L573.932 616.658L607.444 624.403L567.849 592.883ZM917.461 306.77L908.994 273.679L862.35 262.898L917.461 306.77Z" fill="#C79D5E" fill-opacity="0.26"/>
<path fill-rule="evenodd" clip-rule="evenodd" d="M743.987 727.191L729.395 723.819L825.806 800.568L823.157 790.215L743.987 727.191ZM694.439 715.74L709.032 719.112L829.502 815.014L832.151 825.366L694.439 715.74ZM674.077 711.033L659.484 707.66L838.496 850.164L835.847 839.812L674.077 711.033ZM624.529 699.581L639.122 702.954L842.192 864.61L844.841 874.962L624.529 699.581ZM604.166 694.875L589.574 691.502L851.186 899.761L848.537 889.408L604.166 694.875ZM576.462 700.812L580.992 696.174L854.882 914.206L857.531 924.559L576.462 700.812ZM570.14 707.283L565.61 711.92L863.876 949.357L861.227 939.005L570.14 707.283ZM554.758 723.028L559.288 718.391L867.572 963.803L868.16 966.102L864.636 969.709L554.758 723.028ZM548.436 729.499L543.906 734.137L853.784 980.818L858.314 976.181L548.436 729.499ZM533.054 745.245L537.584 740.608L847.462 987.289L842.932 991.926L533.054 745.245ZM526.732 751.716L522.202 756.354L832.08 1003.03L836.61 998.397L526.732 751.716ZM511.35 767.462L515.88 762.825L825.758 1009.51L821.228 1014.14L511.35 767.462ZM505.029 773.933L500.498 778.57L810.376 1025.25L814.906 1020.61L505.029 773.933ZM489.646 789.679L494.177 785.041L804.054 1031.72L799.524 1036.36L489.646 789.679ZM483.325 796.15L478.794 800.787L788.672 1047.47L793.202 1042.83L483.325 796.15ZM467.942 811.895L472.473 807.258L782.35 1053.94L777.82 1058.58L467.942 811.895ZM461.621 818.367L457.09 823.004L766.968 1069.69L771.498 1065.05L461.621 818.367ZM446.238 834.112L450.769 829.475L760.647 1076.16L756.116 1080.79L446.238 834.112ZM439.917 840.583L435.386 845.221L745.264 1091.9L749.795 1087.26L439.917 840.583ZM424.534 856.329L429.065 851.692L738.943 1098.37L734.412 1103.01L424.534 856.329ZM419.089 863.498L421.738 873.85L723.56 1114.12L728.091 1109.48L419.089 863.498ZM428.083 898.648L425.434 888.296L717.239 1120.59L712.708 1125.23L428.083 898.648ZM431.779 913.094L434.428 923.446L701.856 1136.34L706.387 1131.7L431.779 913.094ZM440.773 948.245L438.124 937.892L684.219 1133.8L669.627 1130.43L440.773 948.245ZM444.469 962.69L447.118 973.043L634.672 1122.35L649.264 1125.72L444.469 962.69ZM453.463 997.841L450.814 987.489L614.309 1117.64L599.717 1114.27L453.463 997.841ZM457.159 1012.29L459.808 1022.64L564.762 1106.19L579.354 1109.56L457.159 1012.29ZM466.153 1047.44L463.504 1037.09L544.399 1101.48L529.806 1098.11L466.153 1047.44ZM469.849 1061.88L475.932 1085.66L509.444 1093.4L469.849 1061.88ZM819.461 775.77L810.994 742.679L764.35 731.898L819.461 775.77Z" fill="#558FD2" fill-opacity="0.26"/>
<path fill-rule="evenodd" clip-rule="evenodd" d="M1533.99 864.191L1519.39 860.819L1615.81 937.568L1613.16 927.215L1533.99 864.191ZM1484.44 852.74L1499.03 856.112L1619.5 952.014L1622.15 962.366L1484.44 852.74ZM1464.08 848.033L1449.48 844.66L1628.5 987.164L1625.85 976.812L1464.08 848.033ZM1414.53 836.581L1429.12 839.954L1632.19 1001.61L1634.84 1011.96L1414.53 836.581ZM1394.17 831.875L1379.57 828.502L1641.19 1036.76L1638.54 1026.41L1394.17 831.875ZM1366.46 837.812L1370.99 833.174L1644.88 1051.21L1647.53 1061.56L1366.46 837.812ZM1360.14 844.283L1355.61 848.92L1653.88 1086.36L1651.23 1076L1360.14 844.283ZM1344.76 860.028L1349.29 855.391L1657.57 1100.8L1658.16 1103.1L1654.64 1106.71L1344.76 860.028ZM1338.44 866.499L1333.91 871.137L1643.78 1117.82L1648.31 1113.18L1338.44 866.499ZM1323.05 882.245L1327.58 877.608L1637.46 1124.29L1632.93 1128.93L1323.05 882.245ZM1316.73 888.716L1312.2 893.354L1622.08 1140.03L1626.61 1135.4L1316.73 888.716ZM1301.35 904.462L1305.88 899.825L1615.76 1146.51L1611.23 1151.14L1301.35 904.462ZM1295.03 910.933L1290.5 915.57L1600.38 1162.25L1604.91 1157.61L1295.03 910.933ZM1279.65 926.679L1284.18 922.041L1594.05 1168.72L1589.52 1173.36L1279.65 926.679ZM1273.32 933.15L1268.79 937.787L1578.67 1184.47L1583.2 1179.83L1273.32 933.15ZM1257.94 948.895L1262.47 944.258L1572.35 1190.94L1567.82 1195.58L1257.94 948.895ZM1251.62 955.367L1247.09 960.004L1556.97 1206.69L1561.5 1202.05L1251.62 955.367ZM1236.24 971.112L1240.77 966.475L1550.65 1213.16L1546.12 1217.79L1236.24 971.112ZM1229.92 977.583L1225.39 982.221L1535.26 1228.9L1539.79 1224.26L1229.92 977.583ZM1214.53 993.329L1219.06 988.692L1528.94 1235.37L1524.41 1240.01L1214.53 993.329ZM1209.09 1000.5L1211.74 1010.85L1513.56 1251.12L1518.09 1246.48L1209.09 1000.5ZM1218.08 1035.65L1215.43 1025.3L1507.24 1257.59L1502.71 1262.23L1218.08 1035.65ZM1221.78 1050.09L1224.43 1060.45L1491.86 1273.34L1496.39 1268.7L1221.78 1050.09ZM1230.77 1085.24L1228.12 1074.89L1474.22 1270.8L1459.63 1267.43L1230.77 1085.24ZM1234.47 1099.69L1237.12 1110.04L1424.67 1259.35L1439.26 1262.72L1234.47 1099.69ZM1243.46 1134.84L1240.81 1124.49L1404.31 1254.64L1389.72 1251.27L1243.46 1134.84ZM1247.16 1149.29L1249.81 1159.64L1354.76 1243.19L1369.35 1246.56L1247.16 1149.29ZM1256.15 1184.44L1253.5 1174.09L1334.4 1238.48L1319.81 1235.11L1256.15 1184.44ZM1259.85 1198.88L1265.93 1222.66L1299.44 1230.4L1259.85 1198.88ZM1609.46 912.77L1600.99 879.679L1554.35 868.898L1609.46 912.77Z" fill="#79D2B2" fill-opacity="0.15"/>
<path fill-rule="evenodd" clip-rule="evenodd" d="M1078.99 1032.19L1064.39 1028.82L1160.81 1105.57L1158.16 1095.22L1078.99 1032.19ZM1029.44 1020.74L1044.03 1024.11L1164.5 1120.01L1167.15 1130.37L1029.44 1020.74ZM1009.08 1016.03L994.484 1012.66L1173.5 1155.16L1170.85 1144.81L1009.08 1016.03ZM959.529 1004.58L974.121 1007.95L1177.19 1169.61L1179.84 1179.96L959.529 1004.58ZM939.166 999.875L924.574 996.502L1186.19 1204.76L1183.54 1194.41L939.166 999.875ZM911.462 1005.81L915.992 1001.17L1189.88 1219.21L1192.53 1229.56L911.462 1005.81ZM905.14 1012.28L900.61 1016.92L1198.88 1254.36L1196.23 1244L905.14 1012.28ZM889.758 1028.03L894.288 1023.39L1202.57 1268.8L1203.16 1271.1L1199.64 1274.71L889.758 1028.03ZM883.436 1034.5L878.906 1039.14L1188.78 1285.82L1193.31 1281.18L883.436 1034.5ZM868.054 1050.25L872.584 1045.61L1182.46 1292.29L1177.93 1296.93L868.054 1050.25ZM861.732 1056.72L857.202 1061.35L1167.08 1308.03L1171.61 1303.4L861.732 1056.72ZM846.35 1072.46L850.88 1067.82L1160.76 1314.51L1156.23 1319.14L846.35 1072.46ZM840.028 1078.93L835.498 1083.57L1145.38 1330.25L1149.91 1325.61L840.028 1078.93ZM824.646 1094.68L829.176 1090.04L1139.05 1336.72L1134.52 1341.36L824.646 1094.68ZM818.324 1101.15L813.794 1105.79L1123.67 1352.47L1128.2 1347.83L818.324 1101.15ZM802.942 1116.9L807.472 1112.26L1117.35 1358.94L1112.82 1363.58L802.942 1116.9ZM796.62 1123.37L792.09 1128L1101.97 1374.69L1106.5 1370.05L796.62 1123.37ZM781.238 1139.11L785.768 1134.47L1095.65 1381.16L1091.12 1385.79L781.238 1139.11ZM774.916 1145.58L770.386 1150.22L1080.26 1396.9L1084.79 1392.26L774.916 1145.58ZM759.534 1161.33L764.064 1156.69L1073.94 1403.37L1069.41 1408.01L759.534 1161.33ZM754.089 1168.5L756.737 1178.85L1058.56 1419.12L1063.09 1414.48L754.089 1168.5ZM763.082 1203.65L760.434 1193.3L1052.24 1425.59L1047.71 1430.23L763.082 1203.65ZM766.779 1218.09L769.427 1228.45L1036.86 1441.34L1041.39 1436.7L766.779 1218.09ZM775.772 1253.24L773.124 1242.89L1019.22 1438.8L1004.63 1435.43L775.772 1253.24ZM779.469 1267.69L782.117 1278.04L969.672 1427.35L984.264 1430.72L779.469 1267.69ZM788.462 1302.84L785.814 1292.49L949.309 1422.64L934.717 1419.27L788.462 1302.84ZM792.159 1317.29L794.807 1327.64L899.761 1411.19L914.354 1414.56L792.159 1317.29ZM801.152 1352.44L798.504 1342.09L879.399 1406.48L864.806 1403.11L801.152 1352.44ZM804.849 1366.88L810.932 1390.66L844.444 1398.4L804.849 1366.88ZM1154.46 1080.77L1145.99 1047.68L1099.35 1036.9L1154.46 1080.77Z" fill="#D25555" fill-opacity="0.26"/>
<path fill-rule="evenodd" clip-rule="evenodd" d="M408.987 448.191L394.395 444.819L490.806 521.568L488.157 511.215L408.987 448.191ZM359.439 436.74L374.032 440.112L494.502 536.014L497.151 546.366L359.439 436.74ZM339.077 432.033L324.484 428.66L503.496 571.164L500.847 560.812L339.077 432.033ZM289.529 420.581L304.122 423.954L507.192 585.61L509.841 595.962L289.529 420.581ZM269.166 415.875L254.574 412.502L516.186 620.761L513.537 610.408L269.166 415.875ZM241.462 421.812L245.992 417.174L519.882 635.206L522.531 645.559L241.462 421.812ZM235.14 428.283L230.61 432.92L528.876 670.357L526.227 660.005L235.14 428.283ZM219.758 444.028L224.288 439.391L532.572 684.803L533.16 687.102L529.636 690.709L219.758 444.028ZM213.436 450.499L208.906 455.137L518.784 701.818L523.314 697.181L213.436 450.499ZM198.054 466.245L202.584 461.608L512.462 708.289L507.932 712.926L198.054 466.245ZM191.732 472.716L187.202 477.354L497.08 724.035L501.61 719.397L191.732 472.716ZM176.35 488.462L180.88 483.825L490.758 730.506L486.228 735.143L176.35 488.462ZM170.029 494.933L165.498 499.57L475.376 746.251L479.906 741.614L170.029 494.933ZM154.646 510.679L159.177 506.041L469.054 752.723L464.524 757.36L154.646 510.679ZM148.325 517.15L143.794 521.787L453.672 768.468L458.202 763.831L148.325 517.15ZM132.942 532.895L137.473 528.258L447.35 774.939L442.82 779.577L132.942 532.895ZM126.621 539.367L122.09 544.004L431.968 790.685L436.498 786.048L126.621 539.367ZM111.238 555.112L115.769 550.475L425.647 797.156L421.116 801.793L111.238 555.112ZM104.917 561.583L100.386 566.221L410.264 812.902L414.795 808.264L104.917 561.583ZM89.5343 577.329L94.0646 572.692L403.943 819.373L399.412 824.01L89.5343 577.329ZM84.0888 584.498L86.7376 594.85L388.56 835.119L393.091 830.481L84.0888 584.498ZM93.0826 619.648L90.4338 609.296L382.239 841.59L377.708 846.227L93.0826 619.648ZM96.7788 634.094L99.4276 644.446L366.856 857.335L371.387 852.698L96.7788 634.094ZM105.773 669.245L103.124 658.892L349.219 854.799L334.627 851.426L105.773 669.245ZM109.469 683.69L112.118 694.043L299.672 843.347L314.264 846.72L109.469 683.69ZM118.463 718.841L115.814 708.489L279.309 838.641L264.717 835.268L118.463 718.841ZM122.159 733.287L124.808 743.639L229.762 827.189L244.354 830.561L122.159 733.287ZM131.153 768.437L128.504 758.085L209.399 822.482L194.806 819.11L131.153 768.437ZM134.849 782.883L140.932 806.658L174.444 814.403L134.849 782.883ZM484.461 496.77L475.994 463.679L429.35 452.898L484.461 496.77Z" fill="#D25555" fill-opacity="0.26"/>
</svg>
